<svg width="60" height="60" viewBox="0 0 60 60" fill="none" xmlns="http://www.w3.org/2000/svg">
<path d="M25 10.4348H15V0H10V10.4348H0V15.6522H10V26.087H15V15.6522H25V10.4348Z" fill="black"/>
<path d="M25 39.1304H0V44.3478H25V39.1304Z" fill="black"/>
<path d="M25 52.174H0V57.3913H25V52.174Z" fill="black"/>
<path d="M60 10.4348H35V15.6522H60V10.4348Z" fill="black"/>
<path d="M51.025 46.9566L60 37.5913L56.475 33.9131L47.5 43.2783L38.525 33.9131L35 37.5913L43.975 46.9566L35 56.3218L38.525 60L47.5 50.6348L56.475 60L60 56.3218L51.025 46.9566Z" fill="black"/>
</svg>
