<svg width="116" height="126" viewBox="0 0 116 126" fill="none" xmlns="http://www.w3.org/2000/svg">
<path d="M74.375 64.2339V63.875H71.25V62.375H74.625H75.1572L75.124 61.8438C74.8665 57.7235 73.1921 54.122 70.7534 51.2982L70.4018 50.8911L70.0214 51.2714L67.75 53.5429L66.7071 52.5L68.9786 50.2286L69.3674 49.8397L68.9434 49.4895C66.0022 47.0598 62.4048 45.384 58.4072 45.126L57.875 45.0917V45.625V50H56.375V45.375V44.8428L55.8438 44.876C51.7235 45.1335 48.122 46.8079 45.2982 49.2466L44.8911 49.5982L45.2714 49.9786L48.4179 53.125L47.375 54.1679L44.2286 51.0214L43.8397 50.6326L43.4895 51.0566C41.0598 53.9978 39.384 57.5952 39.126 61.5928L39.0917 62.125H39.625H42.75V63.625H39.375H38.8428L38.876 64.1562C39.1335 68.2765 40.8079 71.878 43.2466 74.7018L43.5982 75.1089L43.9786 74.7286L46.25 72.4571L47.2929 73.5L45.0214 75.7714L44.6326 76.1603L45.0566 76.5105C47.9978 78.9402 51.5952 80.6161 55.5928 80.874L56.125 80.9083V80.375V77.25H57.625V80.5V81.0322L58.1562 80.999C62.2765 80.7415 65.878 79.0671 68.7018 76.6284L69.1089 76.2768L68.7286 75.8964L66.4571 73.625L67.5 72.5821L69.7714 74.8536L70.1603 75.2424L70.5105 74.8184C72.8195 72.0233 74.4477 68.6357 74.8251 64.875H74.875V64.375V64.25L74.375 64.2339ZM37.5 63C37.5 52.2761 46.2761 43.5 57 43.5C67.7239 43.5 76.5 52.2761 76.5 63C76.5 73.7239 67.7239 82.5 57 82.5C46.2761 82.5 37.5 73.7239 37.5 63Z" fill="#2222BB" stroke="black"/>
<path d="M83.7544 59.3164L83.8125 59.75H84.25H84.5C85.5989 59.75 86.5 60.6511 86.5 61.75V64.25C86.5 65.3489 85.5989 66.25 84.5 66.25H84.25H83.8125L83.7544 66.6836C82.1594 78.5851 72.5851 88.1594 60.6836 89.7544L60.25 89.8125V90.25V90.5C60.25 91.5989 59.3489 92.5 58.25 92.5H55.75C54.6511 92.5 53.75 91.5989 53.75 90.5V90.25V89.8125L53.3164 89.7544C41.4149 88.1594 31.8406 78.5851 30.2456 66.6836L30.1875 66.25H29.75H29.5C28.4011 66.25 27.5 65.3489 27.5 64.25V61.75C27.5 60.6511 28.4011 59.75 29.5 59.75H29.75H30.1875L30.2456 59.3164C31.8406 47.4149 41.4149 37.8406 53.3164 36.2456L53.75 36.1875V35.75V35.5C53.75 34.4011 54.6511 33.5 55.75 33.5H58.25C59.3489 33.5 60.25 34.4011 60.25 35.5V35.75V36.1875L60.6836 36.2456C72.5851 37.8406 82.1594 47.4149 83.7544 59.3164ZM31.5 63C31.5 77.0261 42.9739 88.5 57 88.5C71.0261 88.5 82.5 77.0261 82.5 63C82.5 48.9739 71.0261 37.5 57 37.5C42.9739 37.5 31.5 48.9739 31.5 63Z" fill="#2222BB" stroke="black"/>
<path d="M59.6394 65.2508L59.3896 65.3896L59.2508 65.6394L57 69.6909L54.7492 65.6394L54.6104 65.3896L54.3606 65.2508L50.3091 63L54.3606 60.7492L54.6104 60.6104L54.7492 60.3606L57 56.3091L59.2508 60.3606L59.3896 60.6104L59.6394 60.7492L63.6909 63L59.6394 65.2508Z" fill="#F9AE40" stroke="black" stroke-width="2"/>
<mask id="path-4-outside-1_80_4" maskUnits="userSpaceOnUse" x="49" y="1" width="16" height="16" fill="black">
<rect fill="white" x="49" y="1" width="16" height="16"/>
<path d="M57.524 15.216C56.552 15.216 55.646 15.06 54.806 14.748C53.978 14.424 53.258 13.968 52.646 13.38C52.034 12.792 51.554 12.102 51.206 11.31C50.87 10.518 50.702 9.648 50.702 8.7C50.702 7.752 50.87 6.882 51.206 6.09C51.554 5.298 52.034 4.608 52.646 4.02C53.27 3.432 53.996 2.982 54.824 2.67C55.652 2.346 56.558 2.184 57.542 2.184C58.634 2.184 59.618 2.376 60.494 2.76C61.382 3.132 62.126 3.684 62.726 4.416L60.854 6.144C60.422 5.652 59.942 5.286 59.414 5.046C58.886 4.794 58.31 4.668 57.686 4.668C57.098 4.668 56.558 4.764 56.066 4.956C55.574 5.148 55.148 5.424 54.788 5.784C54.428 6.144 54.146 6.57 53.942 7.062C53.75 7.554 53.654 8.1 53.654 8.7C53.654 9.3 53.75 9.846 53.942 10.338C54.146 10.83 54.428 11.256 54.788 11.616C55.148 11.976 55.574 12.252 56.066 12.444C56.558 12.636 57.098 12.732 57.686 12.732C58.31 12.732 58.886 12.612 59.414 12.372C59.942 12.12 60.422 11.742 60.854 11.238L62.726 12.966C62.126 13.698 61.382 14.256 60.494 14.64C59.618 15.024 58.628 15.216 57.524 15.216Z"/>
</mask>
<path d="M57.524 15.216C56.552 15.216 55.646 15.06 54.806 14.748C53.978 14.424 53.258 13.968 52.646 13.38C52.034 12.792 51.554 12.102 51.206 11.31C50.87 10.518 50.702 9.648 50.702 8.7C50.702 7.752 50.87 6.882 51.206 6.09C51.554 5.298 52.034 4.608 52.646 4.02C53.27 3.432 53.996 2.982 54.824 2.67C55.652 2.346 56.558 2.184 57.542 2.184C58.634 2.184 59.618 2.376 60.494 2.76C61.382 3.132 62.126 3.684 62.726 4.416L60.854 6.144C60.422 5.652 59.942 5.286 59.414 5.046C58.886 4.794 58.31 4.668 57.686 4.668C57.098 4.668 56.558 4.764 56.066 4.956C55.574 5.148 55.148 5.424 54.788 5.784C54.428 6.144 54.146 6.57 53.942 7.062C53.75 7.554 53.654 8.1 53.654 8.7C53.654 9.3 53.75 9.846 53.942 10.338C54.146 10.83 54.428 11.256 54.788 11.616C55.148 11.976 55.574 12.252 56.066 12.444C56.558 12.636 57.098 12.732 57.686 12.732C58.31 12.732 58.886 12.612 59.414 12.372C59.942 12.12 60.422 11.742 60.854 11.238L62.726 12.966C62.126 13.698 61.382 14.256 60.494 14.64C59.618 15.024 58.628 15.216 57.524 15.216Z" fill="#F9AE40"/>
<path d="M54.806 14.748L54.4416 15.6792L54.4497 15.6824L54.4578 15.6854L54.806 14.748ZM52.646 13.38L51.9532 14.1011L51.9532 14.1011L52.646 13.38ZM51.206 11.31L50.2853 11.7006L50.2905 11.7123L51.206 11.31ZM51.206 6.09L50.2904 5.68769L50.2854 5.69945L51.206 6.09ZM52.646 4.02L51.9602 3.29218L51.9532 3.29889L52.646 4.02ZM54.824 2.67L55.1766 3.60584L55.1884 3.60124L54.824 2.67ZM60.494 2.76L60.0925 3.67587L60.1 3.67917L60.1076 3.68234L60.494 2.76ZM62.726 4.416L63.4043 5.1508L64.0971 4.51128L63.4994 3.78207L62.726 4.416ZM60.854 6.144L60.1026 6.8038L60.779 7.57416L61.5323 6.8788L60.854 6.144ZM59.414 5.046L58.9833 5.94848L58.9917 5.9525L59.0002 5.95637L59.414 5.046ZM54.788 5.784L55.4951 6.49111L55.4951 6.49111L54.788 5.784ZM53.942 7.062L53.0183 6.67898L53.0142 6.68868L53.0104 6.69846L53.942 7.062ZM53.942 10.338L53.0104 10.7015L53.0142 10.7113L53.0183 10.721L53.942 10.338ZM54.788 11.616L54.0809 12.3231L54.0809 12.3231L54.788 11.616ZM59.414 12.372L59.8278 13.2824L59.8363 13.2785L59.8447 13.2745L59.414 12.372ZM60.854 11.238L61.5323 10.5032L60.7699 9.79949L60.0947 10.5872L60.854 11.238ZM62.726 12.966L63.4994 13.5999L64.0971 12.8707L63.4043 12.2312L62.726 12.966ZM60.494 14.64L60.0971 13.7221L60.0925 13.7241L60.494 14.64ZM57.524 14.216C56.6608 14.216 55.8737 14.0778 55.1542 13.8106L54.4578 15.6854C55.4183 16.0422 56.4432 16.216 57.524 16.216V14.216ZM55.1704 13.8168C54.4587 13.5383 53.8517 13.1517 53.3388 12.6589L51.9532 14.1011C52.6643 14.7843 53.4973 15.3097 54.4416 15.6792L55.1704 13.8168ZM53.3388 12.6589C52.8231 12.1634 52.4179 11.5823 52.1215 10.9077L50.2905 11.7123C50.6901 12.6217 51.2449 13.4206 51.9532 14.1011L53.3388 12.6589ZM52.1266 10.9194C51.8481 10.263 51.702 9.52755 51.702 8.7H49.702C49.702 9.76845 49.8919 10.773 50.2854 11.7005L52.1266 10.9194ZM51.702 8.7C51.702 7.87245 51.8481 7.13696 52.1266 6.48055L50.2854 5.69945C49.8919 6.62703 49.702 7.63155 49.702 8.7H51.702ZM52.1215 6.49227C52.4179 5.81773 52.8231 5.23665 53.3388 4.7411L51.9532 3.29889C51.2449 3.97935 50.6901 4.77827 50.2905 5.68773L52.1215 6.49227ZM53.3318 4.74779C53.8565 4.25338 54.4683 3.87267 55.1766 3.60577L54.4714 1.73423C53.5237 2.09132 52.6835 2.61062 51.9602 3.29221L53.3318 4.74779ZM55.1884 3.60124C55.8885 3.32728 56.6694 3.184 57.542 3.184V1.184C56.4466 1.184 55.4155 1.36471 54.4596 1.73876L55.1884 3.60124ZM57.542 3.184C58.5153 3.184 59.3598 3.35469 60.0925 3.67587L60.8955 1.84413C59.8762 1.39731 58.7527 1.184 57.542 1.184V3.184ZM60.1076 3.68234C60.8477 3.99237 61.458 4.44647 61.9526 5.04993L63.4994 3.78207C62.794 2.92153 61.9163 2.27163 60.8804 1.83766L60.1076 3.68234ZM62.0477 3.6812L60.1757 5.4092L61.5323 6.8788L63.4043 5.1508L62.0477 3.6812ZM61.6054 5.4842C61.092 4.89944 60.5005 4.44141 59.8278 4.13563L59.0002 5.95637C59.3835 6.13059 59.752 6.40456 60.1026 6.8038L61.6054 5.4842ZM59.8447 4.14352C59.1734 3.82309 58.4489 3.668 57.686 3.668V5.668C58.1711 5.668 58.5986 5.76491 58.9833 5.94848L59.8447 4.14352ZM57.686 3.668C56.9877 3.668 56.3227 3.78236 55.7025 4.02442L56.4295 5.88758C56.7933 5.74564 57.2083 5.668 57.686 5.668V3.668ZM55.7025 4.02442C55.0866 4.26477 54.5423 4.61545 54.0809 5.07689L55.4951 6.49111C55.7537 6.23255 56.0614 6.03123 56.4295 5.88758L55.7025 4.02442ZM54.0809 5.07689C53.6239 5.53393 53.2701 6.07148 53.0183 6.67898L54.8657 7.44501C55.0219 7.06852 55.2321 6.75407 55.4951 6.49111L54.0809 5.07689ZM53.0104 6.69846C52.7675 7.321 52.654 7.9924 52.654 8.7H54.654C54.654 8.2076 54.7325 7.787 54.8736 7.42554L53.0104 6.69846ZM52.654 8.7C52.654 9.4076 52.7675 10.079 53.0104 10.7015L54.8736 9.97446C54.7325 9.613 54.654 9.1924 54.654 8.7H52.654ZM53.0183 10.721C53.2701 11.3285 53.6239 11.8661 54.0809 12.3231L55.4951 10.9089C55.2321 10.6459 55.0219 10.3315 54.8657 9.95498L53.0183 10.721ZM54.0809 12.3231C54.5423 12.7845 55.0866 13.1352 55.7025 13.3756L56.4295 11.5124C56.0614 11.3688 55.7537 11.1675 55.4951 10.9089L54.0809 12.3231ZM55.7025 13.3756C56.3227 13.6176 56.9877 13.732 57.686 13.732V11.732C57.2083 11.732 56.7933 11.6544 56.4295 11.5124L55.7025 13.3756ZM57.686 13.732C58.4418 13.732 59.1602 13.5858 59.8278 13.2824L59.0002 11.4616C58.6118 11.6382 58.1782 11.732 57.686 11.732V13.732ZM59.8447 13.2745C60.5145 12.9548 61.1027 12.4844 61.6133 11.8888L60.0947 10.5872C59.7413 10.9996 59.3695 11.2852 58.9833 11.4695L59.8447 13.2745ZM60.1757 11.9728L62.0477 13.7008L63.4043 12.2312L61.5323 10.5032L60.1757 11.9728ZM61.9526 12.3321C61.456 12.938 60.8421 13.4 60.0971 13.7221L60.8909 15.5579C61.9219 15.112 62.796 14.458 63.4994 13.5999L61.9526 12.3321ZM60.0925 13.7241C59.3611 14.0447 58.511 14.216 57.524 14.216V16.216C58.745 16.216 59.8749 16.0033 60.8955 15.5559L60.0925 13.7241Z" fill="black" mask="url(#path-4-outside-1_80_4)"/>
<mask id="path-6-outside-2_80_4" maskUnits="userSpaceOnUse" x="48" y="109" width="21" height="16" fill="black">
<rect fill="white" x="48" y="109" width="21" height="16"/>
<path d="M49.566 123V110.4H52.464V115.35H55.722V117.87H52.464V123H49.566ZM60.69 123.216C59.73 123.216 58.842 123.054 58.026 122.73C57.222 122.406 56.52 121.956 55.92 121.38C55.32 120.792 54.852 120.102 54.516 119.31C54.192 118.506 54.03 117.636 54.03 116.7C54.03 115.752 54.192 114.882 54.516 114.09C54.852 113.298 55.32 112.614 55.92 112.038C56.52 111.45 57.222 110.994 58.026 110.67C58.842 110.346 59.73 110.184 60.69 110.184C61.638 110.184 62.52 110.346 63.336 110.67C64.152 110.994 64.854 111.45 65.442 112.038C66.042 112.614 66.51 113.304 66.846 114.108C67.182 114.9 67.35 115.764 67.35 116.7C67.35 117.636 67.182 118.506 66.846 119.31C66.51 120.102 66.042 120.792 65.442 121.38C64.854 121.956 64.152 122.406 63.336 122.73C62.52 123.054 61.638 123.216 60.69 123.216ZM60.69 120.732C61.218 120.732 61.704 120.636 62.148 120.444C62.592 120.252 62.982 119.982 63.318 119.634C63.654 119.274 63.918 118.848 64.11 118.356C64.302 117.864 64.398 117.312 64.398 116.7C64.398 116.088 64.302 115.536 64.11 115.044C63.918 114.552 63.654 114.132 63.318 113.784C62.982 113.424 62.592 113.148 62.148 112.956C61.704 112.764 61.218 112.668 60.69 112.668C60.174 112.668 59.688 112.764 59.232 112.956C58.788 113.148 58.398 113.424 58.062 113.784C57.726 114.132 57.462 114.552 57.27 115.044C57.078 115.536 56.982 116.088 56.982 116.7C56.982 117.312 57.078 117.864 57.27 118.356C57.462 118.848 57.726 119.274 58.062 119.634C58.398 119.982 58.788 120.252 59.232 120.444C59.688 120.636 60.174 120.732 60.69 120.732Z"/>
</mask>
<path d="M49.566 123V110.4H52.464V115.35H55.722V117.87H52.464V123H49.566ZM60.69 123.216C59.73 123.216 58.842 123.054 58.026 122.73C57.222 122.406 56.52 121.956 55.92 121.38C55.32 120.792 54.852 120.102 54.516 119.31C54.192 118.506 54.03 117.636 54.03 116.7C54.03 115.752 54.192 114.882 54.516 114.09C54.852 113.298 55.32 112.614 55.92 112.038C56.52 111.45 57.222 110.994 58.026 110.67C58.842 110.346 59.73 110.184 60.69 110.184C61.638 110.184 62.52 110.346 63.336 110.67C64.152 110.994 64.854 111.45 65.442 112.038C66.042 112.614 66.51 113.304 66.846 114.108C67.182 114.9 67.35 115.764 67.35 116.7C67.35 117.636 67.182 118.506 66.846 119.31C66.51 120.102 66.042 120.792 65.442 121.38C64.854 121.956 64.152 122.406 63.336 122.73C62.52 123.054 61.638 123.216 60.69 123.216ZM60.69 120.732C61.218 120.732 61.704 120.636 62.148 120.444C62.592 120.252 62.982 119.982 63.318 119.634C63.654 119.274 63.918 118.848 64.11 118.356C64.302 117.864 64.398 117.312 64.398 116.7C64.398 116.088 64.302 115.536 64.11 115.044C63.918 114.552 63.654 114.132 63.318 113.784C62.982 113.424 62.592 113.148 62.148 112.956C61.704 112.764 61.218 112.668 60.69 112.668C60.174 112.668 59.688 112.764 59.232 112.956C58.788 113.148 58.398 113.424 58.062 113.784C57.726 114.132 57.462 114.552 57.27 115.044C57.078 115.536 56.982 116.088 56.982 116.7C56.982 117.312 57.078 117.864 57.27 118.356C57.462 118.848 57.726 119.274 58.062 119.634C58.398 119.982 58.788 120.252 59.232 120.444C59.688 120.636 60.174 120.732 60.69 120.732Z" fill="#F9AE40"/>
<path d="M49.566 123H48.566V124H49.566V123ZM49.566 110.4V109.4H48.566V110.4H49.566ZM52.464 110.4H53.464V109.4H52.464V110.4ZM52.464 115.35H51.464V116.35H52.464V115.35ZM55.722 115.35H56.722V114.35H55.722V115.35ZM55.722 117.87V118.87H56.722V117.87H55.722ZM52.464 117.87V116.87H51.464V117.87H52.464ZM52.464 123V124H53.464V123H52.464ZM58.026 122.73L57.6522 123.658L57.657 123.659L58.026 122.73ZM55.92 121.38L55.22 122.094L55.2275 122.101L55.92 121.38ZM54.516 119.31L53.5885 119.684L53.5919 119.692L53.5954 119.701L54.516 119.31ZM54.516 114.09L53.5953 113.699L53.5905 113.711L54.516 114.09ZM55.92 112.038L56.6126 112.759L56.6199 112.752L55.92 112.038ZM58.026 110.67L57.657 109.741L57.6522 109.742L58.026 110.67ZM63.336 110.67L63.705 109.741L63.705 109.741L63.336 110.67ZM65.442 112.038L64.7349 112.745L64.7421 112.752L64.7495 112.759L65.442 112.038ZM66.846 114.108L65.9233 114.494L65.9254 114.499L66.846 114.108ZM66.846 119.31L67.7666 119.701L67.7687 119.696L66.846 119.31ZM65.442 121.38L66.1418 122.094L66.1419 122.094L65.442 121.38ZM63.336 122.73L63.705 123.659L63.705 123.659L63.336 122.73ZM63.318 119.634L64.0374 120.329L64.0433 120.323L64.0491 120.316L63.318 119.634ZM64.11 118.356L63.1784 117.992L63.1784 117.992L64.11 118.356ZM64.11 115.044L63.1784 115.408L63.1784 115.408L64.11 115.044ZM63.318 113.784L62.5869 114.466L62.5927 114.473L62.5986 114.479L63.318 113.784ZM59.232 112.956L58.8439 112.034L58.8351 112.038L59.232 112.956ZM58.062 113.784L58.7814 114.479L58.7873 114.473L58.7931 114.466L58.062 113.784ZM57.27 115.044L58.2016 115.408L58.2016 115.408L57.27 115.044ZM57.27 118.356L58.2016 117.992L58.2016 117.992L57.27 118.356ZM58.062 119.634L57.3309 120.316L57.3367 120.323L57.3426 120.329L58.062 119.634ZM59.232 120.444L58.8351 121.362L58.8439 121.366L59.232 120.444ZM50.566 123V110.4H48.566V123H50.566ZM49.566 111.4H52.464V109.4H49.566V111.4ZM51.464 110.4V115.35H53.464V110.4H51.464ZM52.464 116.35H55.722V114.35H52.464V116.35ZM54.722 115.35V117.87H56.722V115.35H54.722ZM55.722 116.87H52.464V118.87H55.722V116.87ZM51.464 117.87V123H53.464V117.87H51.464ZM52.464 122H49.566V124H52.464V122ZM60.69 122.216C59.8445 122.216 59.0831 122.074 58.395 121.801L57.657 123.659C58.6009 124.034 59.6155 124.216 60.69 124.216V122.216ZM58.3998 121.802C57.7091 121.524 57.1165 121.142 56.6125 120.659L55.2275 122.101C55.9235 122.77 56.7349 123.288 57.6522 123.658L58.3998 121.802ZM56.6199 120.666C56.1164 120.172 55.7224 119.593 55.4366 118.919L53.5954 119.701C53.9816 120.611 54.5236 121.412 55.2201 122.094L56.6199 120.666ZM55.4435 118.936C55.1711 118.26 55.03 117.518 55.03 116.7H53.03C53.03 117.754 53.2129 118.752 53.5885 119.684L55.4435 118.936ZM55.03 116.7C55.03 115.868 55.1718 115.128 55.4415 114.469L53.5905 113.711C53.2122 114.636 53.03 115.636 53.03 116.7H55.03ZM55.4366 114.481C55.7216 113.809 56.1135 113.238 56.6125 112.759L55.2275 111.317C54.5265 111.99 53.9824 112.787 53.5954 113.699L55.4366 114.481ZM56.6199 112.752C57.1233 112.259 57.7135 111.874 58.3998 111.598L57.6522 109.742C56.7305 110.114 55.9167 110.641 55.2201 111.324L56.6199 112.752ZM58.395 111.599C59.0831 111.326 59.8445 111.184 60.69 111.184V109.184C59.6155 109.184 58.6009 109.366 57.657 109.741L58.395 111.599ZM60.69 111.184C61.5218 111.184 62.2775 111.326 62.967 111.599L63.705 109.741C62.7625 109.366 61.7542 109.184 60.69 109.184V111.184ZM62.967 111.599C63.6635 111.876 64.2486 112.259 64.7349 112.745L66.1491 111.331C65.4594 110.641 64.6405 110.112 63.705 109.741L62.967 111.599ZM64.7495 112.759C65.2458 113.236 65.6376 113.81 65.9233 114.494L67.7687 113.722C67.3824 112.798 66.8382 111.992 66.1345 111.317L64.7495 112.759ZM65.9254 114.499C66.2046 115.157 66.35 115.886 66.35 116.7H68.35C68.35 115.642 68.1594 114.643 67.7666 113.717L65.9254 114.499ZM66.35 116.7C66.35 117.514 66.2046 118.251 65.9233 118.924L67.7687 119.696C68.1594 118.761 68.35 117.758 68.35 116.7H66.35ZM65.9254 118.919C65.6396 119.593 65.2456 120.172 64.7421 120.666L66.1419 122.094C66.8384 121.412 67.3804 120.611 67.7666 119.701L65.9254 118.919ZM64.7422 120.666C64.2553 121.143 63.6679 121.522 62.967 121.801L63.705 123.659C64.6361 123.29 65.4527 122.769 66.1418 122.094L64.7422 120.666ZM62.967 121.801C62.2775 122.074 61.5218 122.216 60.69 122.216V124.216C61.7542 124.216 62.7625 124.034 63.705 123.659L62.967 121.801ZM60.69 121.732C61.3419 121.732 61.9645 121.613 62.5449 121.362L61.7511 119.526C61.4435 119.659 61.0941 119.732 60.69 119.732V121.732ZM62.5449 121.362C63.1101 121.117 63.6097 120.772 64.0374 120.329L62.5986 118.939C62.3543 119.192 62.0739 119.387 61.7511 119.526L62.5449 121.362ZM64.0491 120.316C64.4776 119.857 64.8069 119.321 65.0416 118.72L63.1784 117.992C63.0291 118.375 62.8304 118.691 62.5869 118.952L64.0491 120.316ZM65.0416 118.72C65.2854 118.095 65.398 117.417 65.398 116.7H63.398C63.398 117.207 63.3186 117.633 63.1784 117.992L65.0416 118.72ZM65.398 116.7C65.398 115.983 65.2854 115.305 65.0416 114.68L63.1784 115.408C63.3186 115.767 63.398 116.193 63.398 116.7H65.398ZM65.0416 114.68C64.8059 114.077 64.4735 113.541 64.0374 113.089L62.5986 114.479C62.8345 114.723 63.0301 115.027 63.1784 115.408L65.0416 114.68ZM64.0491 113.102C63.6208 112.643 63.1176 112.286 62.5449 112.038L61.7511 113.874C62.0664 114.01 62.3432 114.205 62.5869 114.466L64.0491 113.102ZM62.5449 112.038C61.9645 111.787 61.3419 111.668 60.69 111.668V113.668C61.0941 113.668 61.4435 113.741 61.7511 113.874L62.5449 112.038ZM60.69 111.668C60.0465 111.668 59.428 111.788 58.8439 112.034L59.6201 113.878C59.948 113.74 60.3015 113.668 60.69 113.668V111.668ZM58.8351 112.038C58.2624 112.286 57.7592 112.643 57.3309 113.102L58.7931 114.466C59.0368 114.205 59.3136 114.01 59.6289 113.874L58.8351 112.038ZM57.3426 113.089C56.9065 113.541 56.5741 114.077 56.3384 114.68L58.2016 115.408C58.3499 115.027 58.5455 114.723 58.7814 114.479L57.3426 113.089ZM56.3384 114.68C56.0946 115.305 55.982 115.983 55.982 116.7H57.982C57.982 116.193 58.0614 115.767 58.2016 115.408L56.3384 114.68ZM55.982 116.7C55.982 117.417 56.0946 118.095 56.3384 118.72L58.2016 117.992C58.0614 117.633 57.982 117.207 57.982 116.7H55.982ZM56.3384 118.72C56.5731 119.321 56.9024 119.857 57.3309 120.316L58.7931 118.952C58.5496 118.691 58.3509 118.375 58.2016 117.992L56.3384 118.72ZM57.3426 120.329C57.7703 120.772 58.2699 121.117 58.8351 121.362L59.6289 119.526C59.3061 119.387 59.0257 119.192 58.7814 118.939L57.3426 120.329ZM58.8439 121.366C59.428 121.612 60.0465 121.732 60.69 121.732V119.732C60.3015 119.732 59.948 119.66 59.6201 119.522L58.8439 121.366Z" fill="black" mask="url(#path-6-outside-2_80_4)"/>
<mask id="path-8-outside-3_80_4" maskUnits="userSpaceOnUse" x="102" y="55" width="14" height="15" fill="black">
<rect fill="white" x="102" y="55" width="14" height="15"/>
<path d="M103.566 69V56.4H109.434C110.898 56.4 112.038 56.682 112.854 57.246C113.67 57.81 114.078 58.614 114.078 59.658C114.078 60.69 113.694 61.494 112.926 62.07C112.158 62.634 111.138 62.916 109.866 62.916L110.208 62.16C111.624 62.16 112.722 62.442 113.502 63.006C114.282 63.57 114.672 64.386 114.672 65.454C114.672 66.558 114.252 67.428 113.412 68.064C112.584 68.688 111.372 69 109.776 69H103.566ZM106.464 66.84H109.668C110.34 66.84 110.85 66.708 111.198 66.444C111.546 66.18 111.72 65.772 111.72 65.22C111.72 64.692 111.546 64.302 111.198 64.05C110.85 63.786 110.34 63.654 109.668 63.654H106.464V66.84ZM106.464 61.62H109.182C109.818 61.62 110.298 61.494 110.622 61.242C110.946 60.978 111.108 60.594 111.108 60.09C111.108 59.586 110.946 59.208 110.622 58.956C110.298 58.692 109.818 58.56 109.182 58.56H106.464V61.62Z"/>
</mask>
<path d="M103.566 69V56.4H109.434C110.898 56.4 112.038 56.682 112.854 57.246C113.67 57.81 114.078 58.614 114.078 59.658C114.078 60.69 113.694 61.494 112.926 62.07C112.158 62.634 111.138 62.916 109.866 62.916L110.208 62.16C111.624 62.16 112.722 62.442 113.502 63.006C114.282 63.57 114.672 64.386 114.672 65.454C114.672 66.558 114.252 67.428 113.412 68.064C112.584 68.688 111.372 69 109.776 69H103.566ZM106.464 66.84H109.668C110.34 66.84 110.85 66.708 111.198 66.444C111.546 66.18 111.72 65.772 111.72 65.22C111.72 64.692 111.546 64.302 111.198 64.05C110.85 63.786 110.34 63.654 109.668 63.654H106.464V66.84ZM106.464 61.62H109.182C109.818 61.62 110.298 61.494 110.622 61.242C110.946 60.978 111.108 60.594 111.108 60.09C111.108 59.586 110.946 59.208 110.622 58.956C110.298 58.692 109.818 58.56 109.182 58.56H106.464V61.62Z" fill="#F9AE40"/>
<path d="M103.566 69H102.566V70H103.566V69ZM103.566 56.4V55.4H102.566V56.4H103.566ZM112.854 57.246L113.423 56.4234L113.423 56.4234L112.854 57.246ZM112.926 62.07L113.518 62.876L113.526 62.87L112.926 62.07ZM109.866 62.916L108.955 62.5038L108.316 63.916H109.866V62.916ZM110.208 62.16V61.16H109.563L109.297 61.7478L110.208 62.16ZM113.502 63.006L114.088 62.1956L114.088 62.1956L113.502 63.006ZM113.412 68.064L114.014 68.8626L114.016 68.8613L113.412 68.064ZM106.464 66.84H105.464V67.84H106.464V66.84ZM111.198 66.444L111.802 67.2407L111.802 67.2407L111.198 66.444ZM111.198 64.05L110.594 64.8467L110.602 64.8534L110.611 64.8599L111.198 64.05ZM106.464 63.654V62.654H105.464V63.654H106.464ZM106.464 61.62H105.464V62.62H106.464V61.62ZM110.622 61.242L111.236 62.0314L111.245 62.0244L111.254 62.0172L110.622 61.242ZM110.622 58.956L109.99 59.7312L109.999 59.7384L110.008 59.7454L110.622 58.956ZM106.464 58.56V57.56H105.464V58.56H106.464ZM104.566 69V56.4H102.566V69H104.566ZM103.566 57.4H109.434V55.4H103.566V57.4ZM109.434 57.4C110.786 57.4 111.699 57.6631 112.285 58.0686L113.423 56.4234C112.377 55.7009 111.01 55.4 109.434 55.4V57.4ZM112.285 58.0686C112.815 58.4346 113.078 58.922 113.078 59.658H115.078C115.078 58.306 114.525 57.1854 113.423 56.4234L112.285 58.0686ZM113.078 59.658C113.078 60.4027 112.821 60.8987 112.326 61.27L113.526 62.87C114.567 62.0893 115.078 60.9773 115.078 59.658H113.078ZM112.334 61.264C111.787 61.6658 110.996 61.916 109.866 61.916V63.916C111.28 63.916 112.529 63.6022 113.518 62.876L112.334 61.264ZM110.777 63.3282L111.119 62.5722L109.297 61.7478L108.955 62.5038L110.777 63.3282ZM110.208 63.16C111.508 63.16 112.37 63.4214 112.916 63.8164L114.088 62.1956C113.074 61.4626 111.74 61.16 110.208 61.16V63.16ZM112.916 63.8164C113.405 64.1696 113.672 64.6662 113.672 65.454H115.672C115.672 64.1058 115.159 62.9704 114.088 62.1956L112.916 63.8164ZM113.672 65.454C113.672 66.2623 113.385 66.8301 112.808 67.2667L114.016 68.8613C115.119 68.0259 115.672 66.8537 115.672 65.454H113.672ZM112.81 67.2654C112.227 67.7051 111.265 68 109.776 68V70C111.479 70 112.941 69.6709 114.014 68.8626L112.81 67.2654ZM109.776 68H103.566V70H109.776V68ZM106.464 67.84H109.668V65.84H106.464V67.84ZM109.668 67.84C110.448 67.84 111.209 67.6907 111.802 67.2407L110.594 65.6473C110.491 65.7253 110.232 65.84 109.668 65.84V67.84ZM111.802 67.2407C112.464 66.7387 112.72 65.9938 112.72 65.22H110.72C110.72 65.5502 110.628 65.6213 110.594 65.6473L111.802 67.2407ZM112.72 65.22C112.72 64.4537 112.452 63.7237 111.785 63.2401L110.611 64.8599C110.64 64.8803 110.72 64.9303 110.72 65.22H112.72ZM111.802 63.2533C111.209 62.8033 110.448 62.654 109.668 62.654V64.654C110.232 64.654 110.491 64.7687 110.594 64.8467L111.802 63.2533ZM109.668 62.654H106.464V64.654H109.668V62.654ZM105.464 63.654V66.84H107.464V63.654H105.464ZM106.464 62.62H109.182V60.62H106.464V62.62ZM109.182 62.62C109.925 62.62 110.663 62.4768 111.236 62.0314L110.008 60.4526C109.933 60.5112 109.711 60.62 109.182 60.62V62.62ZM111.254 62.0172C111.859 61.5239 112.108 60.8262 112.108 60.09H110.108C110.108 60.3618 110.033 60.4321 109.99 60.4668L111.254 62.0172ZM112.108 60.09C112.108 59.3554 111.859 58.6513 111.236 58.1666L110.008 59.7454C110.033 59.7647 110.108 59.8166 110.108 60.09H112.108ZM111.254 58.1808C110.679 57.7125 109.934 57.56 109.182 57.56V59.56C109.702 59.56 109.917 59.6715 109.99 59.7312L111.254 58.1808ZM109.182 57.56H106.464V59.56H109.182V57.56ZM105.464 58.56V61.62H107.464V58.56H105.464Z" fill="black" mask="url(#path-8-outside-3_80_4)"/>
<mask id="path-10-outside-4_80_4" maskUnits="userSpaceOnUse" x="-1" y="55" width="14" height="16" fill="black">
<rect fill="white" x="-1" y="55" width="14" height="16"/>
<path d="M0.432 67.884L1.332 65.796C1.872 66.12 2.448 66.372 3.06 66.552C3.684 66.72 4.29 66.816 4.878 66.84C5.478 66.852 6.018 66.792 6.498 66.66C6.99 66.528 7.38 66.33 7.668 66.066C7.968 65.802 8.118 65.466 8.118 65.058C8.118 64.578 7.92 64.224 7.524 63.996C7.128 63.756 6.6 63.636 5.94 63.636H2.862V61.44H5.724C6.312 61.44 6.768 61.32 7.092 61.08C7.428 60.84 7.596 60.51 7.596 60.09C7.596 59.73 7.476 59.442 7.236 59.226C6.996 58.998 6.666 58.83 6.246 58.722C5.838 58.614 5.376 58.566 4.86 58.578C4.344 58.59 3.81 58.674 3.258 58.83C2.706 58.986 2.178 59.202 1.674 59.478L0.792 57.228C1.608 56.808 2.466 56.52 3.366 56.364C4.278 56.196 5.154 56.154 5.994 56.238C6.846 56.31 7.614 56.502 8.298 56.814C8.982 57.114 9.528 57.51 9.936 58.002C10.344 58.494 10.548 59.076 10.548 59.748C10.548 60.348 10.392 60.882 10.08 61.35C9.768 61.818 9.33 62.178 8.766 62.43C8.214 62.682 7.578 62.808 6.858 62.808L6.93 62.16C7.77 62.16 8.496 62.304 9.108 62.592C9.732 62.868 10.212 63.258 10.548 63.762C10.896 64.254 11.07 64.824 11.07 65.472C11.07 66.072 10.908 66.612 10.584 67.092C10.272 67.56 9.84 67.956 9.288 68.28C8.736 68.604 8.106 68.844 7.398 69C6.69 69.156 5.934 69.222 5.13 69.198C4.338 69.174 3.54 69.06 2.736 68.856C1.932 68.64 1.164 68.316 0.432 67.884Z"/>
</mask>
<path d="M0.432 67.884L1.332 65.796C1.872 66.12 2.448 66.372 3.06 66.552C3.684 66.72 4.29 66.816 4.878 66.84C5.478 66.852 6.018 66.792 6.498 66.66C6.99 66.528 7.38 66.33 7.668 66.066C7.968 65.802 8.118 65.466 8.118 65.058C8.118 64.578 7.92 64.224 7.524 63.996C7.128 63.756 6.6 63.636 5.94 63.636H2.862V61.44H5.724C6.312 61.44 6.768 61.32 7.092 61.08C7.428 60.84 7.596 60.51 7.596 60.09C7.596 59.73 7.476 59.442 7.236 59.226C6.996 58.998 6.666 58.83 6.246 58.722C5.838 58.614 5.376 58.566 4.86 58.578C4.344 58.59 3.81 58.674 3.258 58.83C2.706 58.986 2.178 59.202 1.674 59.478L0.792 57.228C1.608 56.808 2.466 56.52 3.366 56.364C4.278 56.196 5.154 56.154 5.994 56.238C6.846 56.31 7.614 56.502 8.298 56.814C8.982 57.114 9.528 57.51 9.936 58.002C10.344 58.494 10.548 59.076 10.548 59.748C10.548 60.348 10.392 60.882 10.08 61.35C9.768 61.818 9.33 62.178 8.766 62.43C8.214 62.682 7.578 62.808 6.858 62.808L6.93 62.16C7.77 62.16 8.496 62.304 9.108 62.592C9.732 62.868 10.212 63.258 10.548 63.762C10.896 64.254 11.07 64.824 11.07 65.472C11.07 66.072 10.908 66.612 10.584 67.092C10.272 67.56 9.84 67.956 9.288 68.28C8.736 68.604 8.106 68.844 7.398 69C6.69 69.156 5.934 69.222 5.13 69.198C4.338 69.174 3.54 69.06 2.736 68.856C1.932 68.64 1.164 68.316 0.432 67.884Z" fill="#F9AE40"/>
<path d="M0.432 67.884L-0.486324 67.4882L-0.835111 68.2974L-0.0762536 68.7452L0.432 67.884ZM1.332 65.796L1.8465 64.9385L0.866195 64.3503L0.413676 65.4002L1.332 65.796ZM3.06 66.552L2.77783 67.5114L2.78889 67.5146L2.80003 67.5176L3.06 66.552ZM4.878 66.84L4.83722 67.8392L4.84761 67.8396L4.858 67.8398L4.878 66.84ZM6.498 66.66L6.23887 65.6941L6.23284 65.6958L6.498 66.66ZM7.668 66.066L7.00737 65.3153L6.99976 65.322L6.99228 65.3288L7.668 66.066ZM7.524 63.996L7.0057 64.8512L7.0153 64.857L7.02504 64.8626L7.524 63.996ZM2.862 63.636H1.862V64.636H2.862V63.636ZM2.862 61.44V60.44H1.862V61.44H2.862ZM7.092 61.08L6.51076 60.2663L6.50372 60.2713L6.49677 60.2764L7.092 61.08ZM7.236 59.226L6.54725 59.951L6.55702 59.9603L6.56704 59.9693L7.236 59.226ZM6.246 58.722L5.9901 59.6887L5.99696 59.6905L6.246 58.722ZM4.86 58.578L4.83675 57.5783L4.83675 57.5783L4.86 58.578ZM3.258 58.83L3.52996 59.7923L3.52996 59.7923L3.258 58.83ZM1.674 59.478L0.742977 59.843L1.15768 60.9009L2.15431 60.3551L1.674 59.478ZM0.792 57.228L0.334357 56.3389L-0.468617 56.7522L-0.139023 57.593L0.792 57.228ZM3.366 56.364L3.5368 57.3494L3.54716 57.3475L3.366 56.364ZM5.994 56.238L5.8945 57.233L5.90214 57.2338L5.90979 57.2344L5.994 56.238ZM8.298 56.814L7.883 57.7238L7.88965 57.7269L7.89634 57.7298L8.298 56.814ZM9.936 58.002L10.7058 57.3637L10.7058 57.3637L9.936 58.002ZM10.08 61.35L9.24795 60.7953L9.24795 60.7953L10.08 61.35ZM8.766 62.43L8.35805 61.517L8.35071 61.5203L8.766 62.43ZM6.858 62.808L5.86412 62.6976L5.74073 63.808H6.858V62.808ZM6.93 62.16V61.16H6.03496L5.93612 62.0496L6.93 62.16ZM9.108 62.592L8.6822 63.4968L8.69279 63.5018L8.70349 63.5065L9.108 62.592ZM10.548 63.762L9.71595 64.3167L9.72361 64.3282L9.73158 64.3395L10.548 63.762ZM10.584 67.092L9.75514 66.5325L9.75195 66.5373L10.584 67.092ZM9.288 68.28L8.7818 67.4176L8.7818 67.4176L9.288 68.28ZM7.398 69L7.18282 68.0234L7.18282 68.0234L7.398 69ZM5.13 69.198L5.09971 70.1975L5.10016 70.1976L5.13 69.198ZM2.736 68.856L2.47652 69.8218L2.49006 69.8253L2.736 68.856ZM1.35032 68.2798L2.25032 66.1918L0.413676 65.4002L-0.486324 67.4882L1.35032 68.2798ZM0.817504 66.6535C1.43126 67.0217 2.08545 67.3077 2.77783 67.5114L3.34217 65.5926C2.81055 65.4363 2.31274 65.2183 1.8465 64.9385L0.817504 66.6535ZM2.80003 67.5176C3.48871 67.703 4.16831 67.8119 4.83722 67.8392L4.91878 65.8408C4.41169 65.8201 3.87929 65.737 3.31997 65.5864L2.80003 67.5176ZM4.858 67.8398C5.5352 67.8533 6.17356 67.7863 6.76316 67.6242L6.23284 65.6958C5.86244 65.7977 5.4208 65.8507 4.898 65.8402L4.858 67.8398ZM6.75713 67.6258C7.35879 67.4644 7.90678 67.2037 8.34372 66.8032L6.99228 65.3288C6.85322 65.4563 6.62122 65.5916 6.23887 65.6942L6.75713 67.6258ZM8.32863 66.8167C8.84949 66.3584 9.118 65.7465 9.118 65.058H7.118C7.118 65.1855 7.08651 65.2456 7.00737 65.3153L8.32863 66.8167ZM9.118 65.058C9.118 64.2425 8.7477 63.5466 8.02296 63.1294L7.02504 64.8626C7.08682 64.8982 7.09664 64.9205 7.09674 64.9207C7.0982 64.9233 7.118 64.9575 7.118 65.058H9.118ZM8.0423 63.1408C7.43715 62.774 6.70907 62.636 5.94 62.636V64.636C6.49093 64.636 6.81885 64.738 7.0057 64.8512L8.0423 63.1408ZM5.94 62.636H2.862V64.636H5.94V62.636ZM3.862 63.636V61.44H1.862V63.636H3.862ZM2.862 62.44H5.724V60.44H2.862V62.44ZM5.724 62.44C6.43208 62.44 7.12816 62.2977 7.68723 61.8836L6.49677 60.2764C6.40784 60.3423 6.19192 60.44 5.724 60.44V62.44ZM7.67324 61.8937C8.27736 61.4622 8.596 60.8264 8.596 60.09H6.596C6.596 60.1636 6.58221 60.1922 6.57884 60.1988C6.57578 60.2048 6.56329 60.2287 6.51076 60.2663L7.67324 61.8937ZM8.596 60.09C8.596 59.4828 8.38122 58.9113 7.90496 58.4827L6.56704 59.9693C6.57533 59.9768 6.57875 59.9813 6.57977 59.9827C6.58071 59.9841 6.58164 59.9855 6.58292 59.9886C6.58494 59.9935 6.596 60.0219 6.596 60.09H8.596ZM7.92475 58.501C7.52885 58.1249 7.03037 57.8912 6.49504 57.7535L5.99696 59.6905C6.30163 59.7688 6.46315 59.8711 6.54725 59.951L7.92475 58.501ZM6.50189 57.7553C5.98526 57.6185 5.42676 57.5645 4.83675 57.5783L4.88325 59.5777C5.32524 59.5675 5.69074 59.6095 5.99011 59.6887L6.50189 57.7553ZM4.83675 57.5783C4.22786 57.5924 3.61016 57.6913 2.98604 57.8677L3.52996 59.7923C4.00984 59.6567 4.46014 59.5876 4.88325 59.5777L4.83675 57.5783ZM2.98604 57.8677C2.36148 58.0442 1.76359 58.2888 1.19369 58.6009L2.15431 60.3551C2.59241 60.1152 3.05052 59.9278 3.52996 59.7923L2.98604 57.8677ZM2.60502 59.113L1.72302 56.863L-0.139023 57.593L0.742977 59.843L2.60502 59.113ZM1.24964 58.1171C1.97589 57.7433 2.73721 57.4879 3.53679 57.3493L3.19521 55.3787C2.19479 55.5521 1.24011 55.8727 0.334357 56.3389L1.24964 58.1171ZM3.54716 57.3475C4.37564 57.1948 5.15684 57.1593 5.8945 57.233L6.0935 55.243C5.15116 55.1487 4.18036 55.1972 3.18484 55.3805L3.54716 57.3475ZM5.90979 57.2344C6.66289 57.2981 7.31676 57.4655 7.883 57.7238L8.71301 55.9042C7.91125 55.5385 7.02911 55.3219 6.07821 55.2416L5.90979 57.2344ZM7.89634 57.7298C8.4617 57.9778 8.87314 58.2869 9.16624 58.6403L10.7058 57.3637C10.1829 56.7331 9.5023 56.2502 8.69966 55.8982L7.89634 57.7298ZM9.16624 58.6403C9.41737 58.9432 9.548 59.2961 9.548 59.748H11.548C11.548 58.8559 11.2706 58.0448 10.7058 57.3637L9.16624 58.6403ZM9.548 59.748C9.548 60.1644 9.44301 60.5027 9.24795 60.7953L10.9121 61.9047C11.341 61.2613 11.548 60.5316 11.548 59.748H9.548ZM9.24795 60.7953C9.05084 61.091 8.76725 61.3342 8.35806 61.517L9.17394 63.343C9.89275 63.0218 10.4852 62.545 10.9121 61.9047L9.24795 60.7953ZM8.35071 61.5203C7.95111 61.7027 7.46109 61.808 6.858 61.808V63.808C7.69491 63.808 8.47689 63.6613 9.18129 63.3397L8.35071 61.5203ZM7.85188 62.9184L7.92388 62.2704L5.93612 62.0496L5.86412 62.6976L7.85188 62.9184ZM6.93 63.16C7.65751 63.16 8.2316 63.2848 8.6822 63.4968L9.5338 61.6872C8.7604 61.3232 7.88249 61.16 6.93 61.16V63.16ZM8.70349 63.5065C9.1763 63.7157 9.4983 63.9902 9.71595 64.3167L11.3801 63.2073C10.9257 62.5258 10.2877 62.0203 9.51251 61.6775L8.70349 63.5065ZM9.73158 64.3395C9.95099 64.6497 10.07 65.0144 10.07 65.472H12.07C12.07 64.6336 11.841 63.8583 11.3644 63.1845L9.73158 64.3395ZM10.07 65.472C10.07 65.8802 9.96341 66.224 9.75515 66.5325L11.4128 67.6515C11.8526 67 12.07 66.2638 12.07 65.472H10.07ZM9.75195 66.5373C9.53478 66.8631 9.22137 67.1596 8.7818 67.4176L9.7942 69.1424C10.4586 68.7524 11.0092 68.2569 11.4161 67.6467L9.75195 66.5373ZM8.7818 67.4176C8.33133 67.682 7.80181 67.887 7.18282 68.0234L7.61318 69.9766C8.41019 69.801 9.14067 69.526 9.7942 69.1424L8.7818 67.4176ZM7.18282 68.0234C6.56346 68.1599 5.8904 68.2203 5.15984 68.1984L5.10016 70.1976C5.9776 70.2237 6.81654 70.1521 7.61318 69.9766L7.18282 68.0234ZM5.16029 68.1985C4.44438 68.1768 3.71867 68.0736 2.98194 67.8867L2.49006 69.8253C3.36133 70.0464 4.23162 70.1712 5.09971 70.1975L5.16029 68.1985ZM2.99546 67.8902C2.28056 67.6982 1.59607 67.4098 0.940254 67.0228L-0.0762536 68.7452C0.731928 69.2222 1.58344 69.5818 2.47654 69.8218L2.99546 67.8902Z" fill="black" mask="url(#path-10-outside-4_80_4)"/>
<mask id="path-12-outside-5_80_4" maskUnits="userSpaceOnUse" x="5" y="89" width="31" height="16" fill="black">
<rect fill="white" x="5" y="89" width="31" height="16"/>
<path d="M6.962 103V90.4H8.744V95.8H12.002V97.42H8.744V103H6.962ZM17.402 103.144C16.49 103.144 15.644 102.988 14.864 102.676C14.084 102.352 13.406 101.902 12.83 101.326C12.254 100.738 11.804 100.054 11.48 99.274C11.168 98.494 11.012 97.636 11.012 96.7C11.012 95.764 11.168 94.906 11.48 94.126C11.804 93.346 12.254 92.668 12.83 92.092C13.406 91.504 14.084 91.054 14.864 90.742C15.644 90.418 16.49 90.256 17.402 90.256C18.314 90.256 19.16 90.418 19.94 90.742C20.732 91.054 21.416 91.504 21.992 92.092C22.568 92.668 23.012 93.346 23.324 94.126C23.648 94.906 23.81 95.764 23.81 96.7C23.81 97.636 23.648 98.494 23.324 99.274C23.012 100.054 22.568 100.738 21.992 101.326C21.416 101.902 20.732 102.352 19.94 102.676C19.16 102.988 18.314 103.144 17.402 103.144ZM17.402 101.524C18.062 101.524 18.668 101.41 19.22 101.182C19.784 100.942 20.27 100.606 20.678 100.174C21.098 99.742 21.422 99.232 21.65 98.644C21.89 98.056 22.01 97.408 22.01 96.7C22.01 95.992 21.89 95.344 21.65 94.756C21.422 94.168 21.098 93.658 20.678 93.226C20.27 92.794 19.784 92.464 19.22 92.236C18.668 91.996 18.068 91.876 17.42 91.876C16.772 91.876 16.166 91.996 15.602 92.236C15.05 92.464 14.564 92.794 14.144 93.226C13.736 93.658 13.412 94.168 13.172 94.756C12.944 95.344 12.83 95.992 12.83 96.7C12.83 97.408 12.944 98.056 13.172 98.644C13.412 99.232 13.736 99.742 14.144 100.174C14.564 100.606 15.05 100.942 15.602 101.182C16.166 101.41 16.766 101.524 17.402 101.524ZM24.9998 101.632L25.6298 100.3C26.1818 100.732 26.7878 101.056 27.4478 101.272C28.1198 101.488 28.7858 101.602 29.4458 101.614C30.1058 101.614 30.7118 101.524 31.2638 101.344C31.8278 101.164 32.2778 100.894 32.6138 100.534C32.9498 100.174 33.1178 99.73 33.1178 99.202C33.1178 98.554 32.8538 98.062 32.3258 97.726C31.8098 97.39 31.0898 97.222 30.1658 97.222H27.3578V95.764H30.0398C30.8438 95.764 31.4678 95.602 31.9118 95.278C32.3678 94.942 32.5958 94.48 32.5958 93.892C32.5958 93.448 32.4578 93.076 32.1818 92.776C31.9178 92.464 31.5518 92.23 31.0838 92.074C30.6278 91.918 30.1058 91.84 29.5178 91.84C28.9418 91.828 28.3478 91.906 27.7358 92.074C27.1238 92.23 26.5358 92.482 25.9718 92.83L25.3958 91.354C26.1638 90.922 26.9618 90.622 27.7898 90.454C28.6298 90.274 29.4398 90.22 30.2198 90.292C30.9998 90.352 31.7018 90.532 32.3258 90.832C32.9618 91.12 33.4658 91.504 33.8378 91.984C34.2218 92.452 34.4138 93.016 34.4138 93.676C34.4138 94.276 34.2578 94.81 33.9458 95.278C33.6338 95.734 33.2018 96.088 32.6498 96.34C32.0978 96.58 31.4558 96.7 30.7238 96.7L30.7958 96.214C31.6358 96.214 32.3618 96.352 32.9738 96.628C33.5978 96.892 34.0778 97.27 34.4138 97.762C34.7618 98.254 34.9358 98.824 34.9358 99.472C34.9358 100.084 34.7798 100.63 34.4678 101.11C34.1558 101.578 33.7298 101.974 33.1898 102.298C32.6618 102.61 32.0558 102.838 31.3718 102.982C30.6998 103.126 29.9918 103.174 29.2478 103.126C28.5038 103.078 27.7658 102.934 27.0338 102.694C26.3138 102.454 25.6358 102.1 24.9998 101.632Z"/>
</mask>
<path d="M6.962 103V90.4H8.744V95.8H12.002V97.42H8.744V103H6.962ZM17.402 103.144C16.49 103.144 15.644 102.988 14.864 102.676C14.084 102.352 13.406 101.902 12.83 101.326C12.254 100.738 11.804 100.054 11.48 99.274C11.168 98.494 11.012 97.636 11.012 96.7C11.012 95.764 11.168 94.906 11.48 94.126C11.804 93.346 12.254 92.668 12.83 92.092C13.406 91.504 14.084 91.054 14.864 90.742C15.644 90.418 16.49 90.256 17.402 90.256C18.314 90.256 19.16 90.418 19.94 90.742C20.732 91.054 21.416 91.504 21.992 92.092C22.568 92.668 23.012 93.346 23.324 94.126C23.648 94.906 23.81 95.764 23.81 96.7C23.81 97.636 23.648 98.494 23.324 99.274C23.012 100.054 22.568 100.738 21.992 101.326C21.416 101.902 20.732 102.352 19.94 102.676C19.16 102.988 18.314 103.144 17.402 103.144ZM17.402 101.524C18.062 101.524 18.668 101.41 19.22 101.182C19.784 100.942 20.27 100.606 20.678 100.174C21.098 99.742 21.422 99.232 21.65 98.644C21.89 98.056 22.01 97.408 22.01 96.7C22.01 95.992 21.89 95.344 21.65 94.756C21.422 94.168 21.098 93.658 20.678 93.226C20.27 92.794 19.784 92.464 19.22 92.236C18.668 91.996 18.068 91.876 17.42 91.876C16.772 91.876 16.166 91.996 15.602 92.236C15.05 92.464 14.564 92.794 14.144 93.226C13.736 93.658 13.412 94.168 13.172 94.756C12.944 95.344 12.83 95.992 12.83 96.7C12.83 97.408 12.944 98.056 13.172 98.644C13.412 99.232 13.736 99.742 14.144 100.174C14.564 100.606 15.05 100.942 15.602 101.182C16.166 101.41 16.766 101.524 17.402 101.524ZM24.9998 101.632L25.6298 100.3C26.1818 100.732 26.7878 101.056 27.4478 101.272C28.1198 101.488 28.7858 101.602 29.4458 101.614C30.1058 101.614 30.7118 101.524 31.2638 101.344C31.8278 101.164 32.2778 100.894 32.6138 100.534C32.9498 100.174 33.1178 99.73 33.1178 99.202C33.1178 98.554 32.8538 98.062 32.3258 97.726C31.8098 97.39 31.0898 97.222 30.1658 97.222H27.3578V95.764H30.0398C30.8438 95.764 31.4678 95.602 31.9118 95.278C32.3678 94.942 32.5958 94.48 32.5958 93.892C32.5958 93.448 32.4578 93.076 32.1818 92.776C31.9178 92.464 31.5518 92.23 31.0838 92.074C30.6278 91.918 30.1058 91.84 29.5178 91.84C28.9418 91.828 28.3478 91.906 27.7358 92.074C27.1238 92.23 26.5358 92.482 25.9718 92.83L25.3958 91.354C26.1638 90.922 26.9618 90.622 27.7898 90.454C28.6298 90.274 29.4398 90.22 30.2198 90.292C30.9998 90.352 31.7018 90.532 32.3258 90.832C32.9618 91.12 33.4658 91.504 33.8378 91.984C34.2218 92.452 34.4138 93.016 34.4138 93.676C34.4138 94.276 34.2578 94.81 33.9458 95.278C33.6338 95.734 33.2018 96.088 32.6498 96.34C32.0978 96.58 31.4558 96.7 30.7238 96.7L30.7958 96.214C31.6358 96.214 32.3618 96.352 32.9738 96.628C33.5978 96.892 34.0778 97.27 34.4138 97.762C34.7618 98.254 34.9358 98.824 34.9358 99.472C34.9358 100.084 34.7798 100.63 34.4678 101.11C34.1558 101.578 33.7298 101.974 33.1898 102.298C32.6618 102.61 32.0558 102.838 31.3718 102.982C30.6998 103.126 29.9918 103.174 29.2478 103.126C28.5038 103.078 27.7658 102.934 27.0338 102.694C26.3138 102.454 25.6358 102.1 24.9998 101.632Z" fill="#2222BB"/>
<path d="M6.962 103H5.962V104H6.962V103ZM6.962 90.4V89.4H5.962V90.4H6.962ZM8.744 90.4H9.744V89.4H8.744V90.4ZM8.744 95.8H7.744V96.8H8.744V95.8ZM12.002 95.8H13.002V94.8H12.002V95.8ZM12.002 97.42V98.42H13.002V97.42H12.002ZM8.744 97.42V96.42H7.744V97.42H8.744ZM8.744 103V104H9.744V103H8.744ZM14.864 102.676L14.4804 103.6L14.4926 103.604L14.864 102.676ZM12.83 101.326L12.1156 102.026L12.1229 102.033L12.83 101.326ZM11.48 99.274L10.5514 99.6454L10.5565 99.6576L11.48 99.274ZM11.48 94.126L10.5564 93.7424L10.5515 93.7546L11.48 94.126ZM12.83 92.092L13.5371 92.7991L13.5444 92.7918L12.83 92.092ZM14.864 90.742L15.2354 91.6706L15.2476 91.6655L14.864 90.742ZM19.94 90.742L19.5564 91.6655L19.5649 91.669L19.5735 91.6724L19.94 90.742ZM21.992 92.092L21.2776 92.7918L21.2849 92.7991L21.992 92.092ZM23.324 94.126L22.3954 94.4974L22.4005 94.5096L23.324 94.126ZM23.324 99.274L22.4004 98.8904L22.3955 98.9026L23.324 99.274ZM21.992 101.326L22.6991 102.033L22.7064 102.026L21.992 101.326ZM19.94 102.676L20.3114 103.605L20.3186 103.602L19.94 102.676ZM19.22 101.182L19.6018 102.106L19.6116 102.102L19.22 101.182ZM20.678 100.174L19.961 99.4769L19.956 99.4821L19.951 99.4874L20.678 100.174ZM21.65 98.644L20.7242 98.2661L20.7208 98.2743L20.7176 98.2825L21.65 98.644ZM21.65 94.756L20.7176 95.1175L20.7208 95.1257L20.7242 95.1339L21.65 94.756ZM20.678 93.226L19.951 93.9126L19.956 93.9179L19.961 93.9231L20.678 93.226ZM19.22 92.236L18.8213 93.1531L18.8332 93.1582L18.8452 93.1631L19.22 92.236ZM15.602 92.236L15.9838 93.1603L15.9936 93.1562L15.602 92.236ZM14.144 93.226L13.427 92.5289L13.422 92.5341L13.417 92.5394L14.144 93.226ZM13.172 94.756L12.2462 94.3781L12.2428 94.3863L12.2396 94.3945L13.172 94.756ZM13.172 98.644L12.2396 99.0055L12.2428 99.0137L12.2462 99.0219L13.172 98.644ZM14.144 100.174L13.417 100.861L13.422 100.866L13.427 100.871L14.144 100.174ZM15.602 101.182L15.2033 102.099L15.2152 102.104L15.2272 102.109L15.602 101.182ZM7.962 103V90.4H5.962V103H7.962ZM6.962 91.4H8.744V89.4H6.962V91.4ZM7.744 90.4V95.8H9.744V90.4H7.744ZM8.744 96.8H12.002V94.8H8.744V96.8ZM11.002 95.8V97.42H13.002V95.8H11.002ZM12.002 96.42H8.744V98.42H12.002V96.42ZM7.744 97.42V103H9.744V97.42H7.744ZM8.744 102H6.962V104H8.744V102ZM17.402 102.144C16.6063 102.144 15.8875 102.008 15.2354 101.748L14.4926 103.604C15.4005 103.968 16.3737 104.144 17.402 104.144V102.144ZM15.2476 101.753C14.584 101.477 14.0171 101.099 13.5371 100.619L12.1229 102.033C12.7949 102.705 13.584 103.227 14.4804 103.599L15.2476 101.753ZM13.5444 100.626C13.0599 100.132 12.6799 99.5558 12.4035 98.8904L10.5565 99.6576C10.9281 100.552 11.4481 101.344 12.1156 102.026L13.5444 100.626ZM12.4085 98.9026C12.1488 98.2535 12.012 97.5233 12.012 96.7H10.012C10.012 97.7487 10.1872 98.7345 10.5515 99.6454L12.4085 98.9026ZM12.012 96.7C12.012 95.8767 12.1488 95.1465 12.4085 94.4974L10.5515 93.7546C10.1872 94.6655 10.012 95.6513 10.012 96.7H12.012ZM12.4035 94.5096C12.6791 93.846 13.0571 93.2791 13.5371 92.7991L12.1229 91.3849C11.4509 92.0569 10.9289 92.846 10.5565 93.7424L12.4035 94.5096ZM13.5444 92.7918C14.0211 92.3051 14.5816 91.932 15.2354 91.6705L14.4926 89.8135C13.5864 90.176 12.7909 90.7029 12.1156 91.3922L13.5444 92.7918ZM15.2476 91.6655C15.8966 91.3959 16.6111 91.256 17.402 91.256V89.256C16.3689 89.256 15.3914 89.4401 14.4804 89.8185L15.2476 91.6655ZM17.402 91.256C18.1929 91.256 18.9074 91.3959 19.5564 91.6655L20.3236 89.8185C19.4126 89.4401 18.4351 89.256 17.402 89.256V91.256ZM19.5735 91.6724C20.2392 91.9347 20.8035 92.3077 21.2776 92.7918L22.7064 91.3922C22.0285 90.7003 21.2248 90.1733 20.3065 89.8116L19.5735 91.6724ZM21.2849 92.7991C21.7621 93.2763 22.1322 93.8391 22.3955 94.4974L24.2525 93.7546C23.8918 92.8529 23.3739 92.0597 22.6991 91.3849L21.2849 92.7991ZM22.4005 94.5096C22.6688 95.1555 22.81 95.8814 22.81 96.7H24.81C24.81 95.6466 24.6272 94.6565 24.2475 93.7424L22.4005 94.5096ZM22.81 96.7C22.81 97.5186 22.6688 98.2445 22.4005 98.8904L24.2475 99.6576C24.6272 98.7435 24.81 97.7534 24.81 96.7H22.81ZM22.3955 98.9026C22.1315 99.5627 21.7594 100.134 21.2776 100.626L22.7064 102.026C23.3766 101.342 23.8925 100.545 24.2525 99.6454L22.3955 98.9026ZM21.2849 100.619C20.8075 101.096 20.2368 101.474 19.5614 101.75L20.3186 103.602C21.2272 103.23 22.0245 102.708 22.6991 102.033L21.2849 100.619ZM19.5686 101.748C18.9165 102.008 18.1977 102.144 17.402 102.144V104.144C18.4303 104.144 19.4035 103.968 20.3114 103.604L19.5686 101.748ZM17.402 102.524C18.1792 102.524 18.9166 102.389 19.6018 102.106L18.8382 100.258C18.4194 100.431 17.9448 100.524 17.402 100.524V102.524ZM19.6116 102.102C20.2982 101.81 20.8995 101.396 21.405 100.861L19.951 99.4874C19.6405 99.8161 19.2698 100.074 18.8284 100.262L19.6116 102.102ZM21.395 100.871C21.9129 100.338 22.3081 99.7127 22.5824 99.0055L20.7176 98.2825C20.5359 98.7513 20.2831 99.1457 19.961 99.4769L21.395 100.871ZM22.5758 99.0219C22.8701 98.3009 23.01 97.5227 23.01 96.7H21.01C21.01 97.2933 20.9099 97.8111 20.7242 98.2661L22.5758 99.0219ZM23.01 96.7C23.01 95.8773 22.8701 95.0991 22.5758 94.3781L20.7242 95.1339C20.9099 95.5889 21.01 96.1067 21.01 96.7H23.01ZM22.5824 94.3945C22.3081 93.6873 21.9129 93.0617 21.395 92.5289L19.961 93.9231C20.2831 94.2543 20.5359 94.6487 20.7176 95.1175L22.5824 94.3945ZM21.405 92.5394C20.8959 92.0003 20.2889 91.5895 19.5948 91.3089L18.8452 93.1631C19.2791 93.3385 19.6441 93.5877 19.951 93.9126L21.405 92.5394ZM19.6187 91.3189C18.9315 91.0201 18.1946 90.876 17.42 90.876V92.876C17.9414 92.876 18.4045 92.9719 18.8213 93.1531L19.6187 91.3189ZM17.42 90.876C16.6453 90.876 15.9053 91.0202 15.2104 91.3158L15.9936 93.1562C16.4267 92.9718 16.8987 92.876 17.42 92.876V90.876ZM15.2202 91.3117C14.541 91.5923 13.9412 92 13.427 92.5289L14.861 93.9231C15.1868 93.588 15.559 93.3357 15.9838 93.1603L15.2202 91.3117ZM13.417 92.5394C12.9185 93.0672 12.5296 93.6837 12.2462 94.3781L14.0978 95.1339C14.2944 94.6523 14.5535 94.2488 14.871 93.9126L13.417 92.5394ZM12.2396 94.3945C11.9618 95.111 11.83 95.8834 11.83 96.7H13.83C13.83 96.1006 13.9262 95.577 14.1044 95.1175L12.2396 94.3945ZM11.83 96.7C11.83 97.5166 11.9618 98.289 12.2396 99.0055L14.1044 98.2825C13.9262 97.823 13.83 97.2994 13.83 96.7H11.83ZM12.2462 99.0219C12.5296 99.7163 12.9185 100.333 13.417 100.861L14.871 99.4874C14.5535 99.1512 14.2944 98.7477 14.0978 98.2661L12.2462 99.0219ZM13.427 100.871C13.9377 101.396 14.5318 101.807 15.2033 102.099L16.0007 100.265C15.5682 100.077 15.1903 99.8157 14.861 99.4769L13.427 100.871ZM15.2272 102.109C15.9157 102.387 16.6435 102.524 17.402 102.524V100.524C16.8885 100.524 16.4163 100.433 15.9768 100.255L15.2272 102.109ZM24.9998 101.632L24.0958 101.204L23.7436 101.949L24.4071 102.437L24.9998 101.632ZM25.6298 100.3L26.2461 99.5125L25.2608 98.7414L24.7258 99.8724L25.6298 100.3ZM27.4478 101.272L27.1368 102.222L27.1418 102.224L27.4478 101.272ZM29.4458 101.614L29.4276 102.614L29.4367 102.614H29.4458V101.614ZM31.2638 101.344L30.9598 100.391L30.9538 100.393L31.2638 101.344ZM32.3258 97.726L31.7801 98.564L31.789 98.5697L32.3258 97.726ZM27.3578 97.222H26.3578V98.222H27.3578V97.222ZM27.3578 95.764V94.764H26.3578V95.764H27.3578ZM31.9118 95.278L32.5013 96.0858L32.505 96.0831L31.9118 95.278ZM32.1818 92.776L31.4184 93.4219L31.4318 93.4378L31.4459 93.4531L32.1818 92.776ZM31.0838 92.074L30.7601 93.0202L30.7676 93.0227L31.0838 92.074ZM29.5178 91.84L29.497 92.8398L29.5074 92.84H29.5178V91.84ZM27.7358 92.074L27.9828 93.043L27.9917 93.0408L28.0005 93.0383L27.7358 92.074ZM25.9718 92.83L25.0403 93.1935L25.4763 94.3108L26.4969 93.681L25.9718 92.83ZM25.3958 91.354L24.9056 90.4824L24.1484 90.9083L24.4643 91.7175L25.3958 91.354ZM27.7898 90.454L27.9887 91.4341L27.9994 91.4318L27.7898 90.454ZM30.2198 90.292L30.1279 91.2878L30.1355 91.2885L30.1431 91.2891L30.2198 90.292ZM32.3258 90.832L31.8925 91.7333L31.9029 91.7382L31.9133 91.743L32.3258 90.832ZM33.8378 91.984L33.0474 92.5966L33.0559 92.6076L33.0648 92.6183L33.8378 91.984ZM33.9458 95.278L34.7712 95.8427L34.7779 95.8327L33.9458 95.278ZM32.6498 96.34L33.0486 97.2571L33.0569 97.2535L33.0651 97.2497L32.6498 96.34ZM30.7238 96.7L29.7346 96.5535L29.5648 97.7H30.7238V96.7ZM30.7958 96.214V95.214H29.9331L29.8066 96.0675L30.7958 96.214ZM32.9738 96.628L32.5627 97.5396L32.5734 97.5444L32.5842 97.549L32.9738 96.628ZM34.4138 97.762L33.588 98.326L33.5927 98.3328L33.5974 98.3395L34.4138 97.762ZM34.4678 101.11L35.2999 101.665L35.3063 101.655L34.4678 101.11ZM33.1898 102.298L33.6986 103.159L33.7043 103.155L33.1898 102.298ZM31.3718 102.982L31.1658 102.003L31.1623 102.004L31.3718 102.982ZM29.2478 103.126L29.1834 104.124L29.2478 103.126ZM27.0338 102.694L26.7176 103.643L26.7223 103.644L27.0338 102.694ZM25.9038 102.06L26.5338 100.728L24.7258 99.8724L24.0958 101.204L25.9038 102.06ZM25.0135 101.088C25.6562 101.59 26.3653 101.97 27.1368 102.222L27.7589 100.322C27.2104 100.142 26.7075 99.8736 26.2461 99.5125L25.0135 101.088ZM27.1418 102.224C27.9005 102.468 28.6633 102.6 29.4276 102.614L29.464 100.614C28.9083 100.604 28.3392 100.508 27.7538 100.32L27.1418 102.224ZM29.4458 102.614C30.1969 102.614 30.9091 102.511 31.5738 102.295L30.9538 100.393C30.5145 100.537 30.0147 100.614 29.4458 100.614V102.614ZM31.5679 102.297C32.2621 102.075 32.8705 101.725 33.3449 101.216L31.8828 99.8517C31.6851 100.063 31.3936 100.253 30.9598 100.391L31.5679 102.297ZM33.3449 101.216C33.8669 100.657 34.1178 99.9633 34.1178 99.202H32.1178C32.1178 99.4967 32.0328 99.691 31.8828 99.8517L33.3449 101.216ZM34.1178 99.202C34.1178 98.2267 33.6913 97.4096 32.8627 96.8823L31.789 98.5697C32.0164 98.7144 32.1178 98.8813 32.1178 99.202H34.1178ZM32.8715 96.888C32.1309 96.4058 31.1928 96.222 30.1658 96.222V98.222C30.9869 98.222 31.4887 98.3742 31.7802 98.564L32.8715 96.888ZM30.1658 96.222H27.3578V98.222H30.1658V96.222ZM28.3578 97.222V95.764H26.3578V97.222H28.3578ZM27.3578 96.764H30.0398V94.764H27.3578V96.764ZM30.0398 96.764C30.9619 96.764 31.8234 96.5805 32.5013 96.0858L31.3224 94.4702C31.1123 94.6235 30.7258 94.764 30.0398 94.764V96.764ZM32.505 96.0831C33.2281 95.5503 33.5958 94.7835 33.5958 93.892H31.5958C31.5958 94.1765 31.5076 94.3337 31.3186 94.4729L32.505 96.0831ZM33.5958 93.892C33.5958 93.2215 33.3794 92.6007 32.9178 92.0989L31.4459 93.4531C31.5363 93.5513 31.5958 93.6745 31.5958 93.892H33.5958ZM32.9452 92.1301C32.5403 91.6516 32.0059 91.3273 31.4001 91.1253L30.7676 93.0227C31.0978 93.1327 31.2953 93.2764 31.4184 93.4219L32.9452 92.1301ZM31.4075 91.1278C30.8273 90.9293 30.1926 90.84 29.5178 90.84V92.84C30.0191 92.84 30.4284 92.9067 30.7601 93.0202L31.4075 91.1278ZM29.5387 90.8402C28.857 90.826 28.1667 90.9187 27.4711 91.1097L28.0005 93.0383C28.5289 92.8933 29.0266 92.83 29.497 92.8398L29.5387 90.8402ZM27.4888 91.105C26.7739 91.2872 26.0926 91.5804 25.4467 91.979L26.4969 93.681C26.979 93.3836 27.4737 93.1728 27.9828 93.043L27.4888 91.105ZM26.9034 92.4665L26.3274 90.9905L24.4643 91.7175L25.0403 93.1935L26.9034 92.4665ZM25.8861 92.2256C26.5671 91.8425 27.2672 91.5804 27.9887 91.434L27.591 89.474C26.6565 89.6636 25.7605 90.0015 24.9056 90.4824L25.8861 92.2256ZM27.9994 91.4318C28.7499 91.271 29.458 91.2259 30.1279 91.2878L30.3117 89.2962C29.4217 89.2141 28.5098 89.277 27.5803 89.4762L27.9994 91.4318ZM30.1431 91.2891C30.8153 91.3408 31.394 91.4936 31.8925 91.7333L32.7591 89.9307C32.0097 89.5704 31.1843 89.3632 30.2965 89.2949L30.1431 91.2891ZM31.9133 91.743C32.4233 91.9739 32.7892 92.2634 33.0474 92.5966L34.6282 91.3714C34.1424 90.7446 33.5004 90.2661 32.7383 89.921L31.9133 91.743ZM33.0648 92.6183C33.2885 92.8909 33.4138 93.225 33.4138 93.676H35.4138C35.4138 92.807 35.1552 92.0131 34.6109 91.3497L33.0648 92.6183ZM33.4138 93.676C33.4138 94.0924 33.3088 94.4307 33.1138 94.7233L34.7779 95.8327C35.2068 95.1893 35.4138 94.4596 35.4138 93.676H33.4138ZM33.1205 94.7133C32.9212 95.0046 32.6378 95.2462 32.2345 95.4303L33.0651 97.2497C33.7659 96.9298 34.3465 96.4634 34.7711 95.8427L33.1205 94.7133ZM32.2511 95.4229C31.849 95.5978 31.3476 95.7 30.7238 95.7V97.7C31.5641 97.7 32.3466 97.5622 33.0486 97.2571L32.2511 95.4229ZM31.713 96.8465L31.785 96.3605L29.8066 96.0675L29.7346 96.5535L31.713 96.8465ZM30.7958 97.214C31.5286 97.214 32.1081 97.3346 32.5627 97.5396L33.3849 95.7164C32.6156 95.3694 31.743 95.214 30.7958 95.214V97.214ZM32.5842 97.549C33.0565 97.7488 33.3745 98.0133 33.588 98.326L35.2396 97.198C34.7812 96.5267 34.1392 96.0352 33.3635 95.707L32.5842 97.549ZM33.5974 98.3395C33.8168 98.6497 33.9358 99.0144 33.9358 99.472H35.9358C35.9358 98.6336 35.7068 97.8583 35.2302 97.1845L33.5974 98.3395ZM33.9358 99.472C33.9358 99.9045 33.8286 100.259 33.6294 100.565L35.3063 101.655C35.7311 101.001 35.9358 100.263 35.9358 99.472H33.9358ZM33.6358 100.555C33.4153 100.886 33.1037 101.184 32.6753 101.441L33.7043 103.155C34.356 102.764 34.8964 102.27 35.2999 101.665L33.6358 100.555ZM32.6811 101.437C32.259 101.686 31.7579 101.879 31.1658 102.003L31.5778 103.961C32.3538 103.797 33.0646 103.534 33.6986 103.159L32.6811 101.437ZM31.1623 102.004C30.5875 102.127 29.9721 102.171 29.3122 102.128L29.1834 104.124C30.0115 104.177 30.8121 104.125 31.5814 103.96L31.1623 102.004ZM29.3122 102.128C28.655 102.086 28 101.958 27.3454 101.744L26.7223 103.644C27.5317 103.91 28.3526 104.07 29.1834 104.124L29.3122 102.128ZM27.3501 101.745C26.7331 101.54 26.1478 101.235 25.5925 100.827L24.4071 102.437C25.1238 102.965 25.8946 103.368 26.7176 103.643L27.3501 101.745Z" fill="black" mask="url(#path-12-outside-5_80_4)"/>
<mask id="path-14-outside-6_80_4" maskUnits="userSpaceOnUse" x="4" y="21" width="26" height="16" fill="black">
<rect fill="white" x="4" y="21" width="26" height="16"/>
<path d="M12.596 35.144C11.636 35.144 10.748 34.988 9.932 34.676C9.128 34.352 8.426 33.902 7.826 33.326C7.238 32.738 6.776 32.054 6.44 31.274C6.104 30.494 5.936 29.636 5.936 28.7C5.936 27.764 6.104 26.906 6.44 26.126C6.776 25.346 7.244 24.668 7.844 24.092C8.444 23.504 9.146 23.054 9.95 22.742C10.766 22.418 11.654 22.256 12.614 22.256C13.586 22.256 14.48 22.424 15.296 22.76C16.124 23.084 16.826 23.57 17.402 24.218L16.232 25.352C15.752 24.848 15.212 24.476 14.612 24.236C14.012 23.984 13.37 23.858 12.686 23.858C11.978 23.858 11.318 23.978 10.706 24.218C10.106 24.458 9.584 24.794 9.14 25.226C8.696 25.658 8.348 26.174 8.096 26.774C7.856 27.362 7.736 28.004 7.736 28.7C7.736 29.396 7.856 30.044 8.096 30.644C8.348 31.232 8.696 31.742 9.14 32.174C9.584 32.606 10.106 32.942 10.706 33.182C11.318 33.422 11.978 33.542 12.686 33.542C13.37 33.542 14.012 33.422 14.612 33.182C15.212 32.93 15.752 32.546 16.232 32.03L17.402 33.164C16.826 33.812 16.124 34.304 15.296 34.64C14.48 34.976 13.58 35.144 12.596 35.144ZM18.4959 33.632L19.1259 32.3C19.6779 32.732 20.2839 33.056 20.9439 33.272C21.6159 33.488 22.2819 33.602 22.9419 33.614C23.6019 33.614 24.2079 33.524 24.7599 33.344C25.3239 33.164 25.7739 32.894 26.1099 32.534C26.4459 32.174 26.6139 31.73 26.6139 31.202C26.6139 30.554 26.3499 30.062 25.8219 29.726C25.3059 29.39 24.5859 29.222 23.6619 29.222H20.8539V27.764H23.5359C24.3399 27.764 24.9639 27.602 25.4079 27.278C25.8639 26.942 26.0919 26.48 26.0919 25.892C26.0919 25.448 25.9539 25.076 25.6779 24.776C25.4139 24.464 25.0479 24.23 24.5799 24.074C24.1239 23.918 23.6019 23.84 23.0139 23.84C22.4379 23.828 21.8439 23.906 21.2319 24.074C20.6199 24.23 20.0319 24.482 19.4679 24.83L18.8919 23.354C19.6599 22.922 20.4579 22.622 21.2859 22.454C22.1259 22.274 22.9359 22.22 23.7159 22.292C24.4959 22.352 25.1979 22.532 25.8219 22.832C26.4579 23.12 26.9619 23.504 27.3339 23.984C27.7179 24.452 27.9099 25.016 27.9099 25.676C27.9099 26.276 27.7539 26.81 27.4419 27.278C27.1299 27.734 26.6979 28.088 26.1459 28.34C25.5939 28.58 24.9519 28.7 24.2199 28.7L24.2919 28.214C25.1319 28.214 25.8579 28.352 26.4699 28.628C27.0939 28.892 27.5739 29.27 27.9099 29.762C28.2579 30.254 28.4319 30.824 28.4319 31.472C28.4319 32.084 28.2759 32.63 27.9639 33.11C27.6519 33.578 27.2259 33.974 26.6859 34.298C26.1579 34.61 25.5519 34.838 24.8679 34.982C24.1959 35.126 23.4879 35.174 22.7439 35.126C21.9999 35.078 21.2619 34.934 20.5299 34.694C19.8099 34.454 19.1319 34.1 18.4959 33.632Z"/>
</mask>
<path d="M12.596 35.144C11.636 35.144 10.748 34.988 9.932 34.676C9.128 34.352 8.426 33.902 7.826 33.326C7.238 32.738 6.776 32.054 6.44 31.274C6.104 30.494 5.936 29.636 5.936 28.7C5.936 27.764 6.104 26.906 6.44 26.126C6.776 25.346 7.244 24.668 7.844 24.092C8.444 23.504 9.146 23.054 9.95 22.742C10.766 22.418 11.654 22.256 12.614 22.256C13.586 22.256 14.48 22.424 15.296 22.76C16.124 23.084 16.826 23.57 17.402 24.218L16.232 25.352C15.752 24.848 15.212 24.476 14.612 24.236C14.012 23.984 13.37 23.858 12.686 23.858C11.978 23.858 11.318 23.978 10.706 24.218C10.106 24.458 9.584 24.794 9.14 25.226C8.696 25.658 8.348 26.174 8.096 26.774C7.856 27.362 7.736 28.004 7.736 28.7C7.736 29.396 7.856 30.044 8.096 30.644C8.348 31.232 8.696 31.742 9.14 32.174C9.584 32.606 10.106 32.942 10.706 33.182C11.318 33.422 11.978 33.542 12.686 33.542C13.37 33.542 14.012 33.422 14.612 33.182C15.212 32.93 15.752 32.546 16.232 32.03L17.402 33.164C16.826 33.812 16.124 34.304 15.296 34.64C14.48 34.976 13.58 35.144 12.596 35.144ZM18.4959 33.632L19.1259 32.3C19.6779 32.732 20.2839 33.056 20.9439 33.272C21.6159 33.488 22.2819 33.602 22.9419 33.614C23.6019 33.614 24.2079 33.524 24.7599 33.344C25.3239 33.164 25.7739 32.894 26.1099 32.534C26.4459 32.174 26.6139 31.73 26.6139 31.202C26.6139 30.554 26.3499 30.062 25.8219 29.726C25.3059 29.39 24.5859 29.222 23.6619 29.222H20.8539V27.764H23.5359C24.3399 27.764 24.9639 27.602 25.4079 27.278C25.8639 26.942 26.0919 26.48 26.0919 25.892C26.0919 25.448 25.9539 25.076 25.6779 24.776C25.4139 24.464 25.0479 24.23 24.5799 24.074C24.1239 23.918 23.6019 23.84 23.0139 23.84C22.4379 23.828 21.8439 23.906 21.2319 24.074C20.6199 24.23 20.0319 24.482 19.4679 24.83L18.8919 23.354C19.6599 22.922 20.4579 22.622 21.2859 22.454C22.1259 22.274 22.9359 22.22 23.7159 22.292C24.4959 22.352 25.1979 22.532 25.8219 22.832C26.4579 23.12 26.9619 23.504 27.3339 23.984C27.7179 24.452 27.9099 25.016 27.9099 25.676C27.9099 26.276 27.7539 26.81 27.4419 27.278C27.1299 27.734 26.6979 28.088 26.1459 28.34C25.5939 28.58 24.9519 28.7 24.2199 28.7L24.2919 28.214C25.1319 28.214 25.8579 28.352 26.4699 28.628C27.0939 28.892 27.5739 29.27 27.9099 29.762C28.2579 30.254 28.4319 30.824 28.4319 31.472C28.4319 32.084 28.2759 32.63 27.9639 33.11C27.6519 33.578 27.2259 33.974 26.6859 34.298C26.1579 34.61 25.5519 34.838 24.8679 34.982C24.1959 35.126 23.4879 35.174 22.7439 35.126C21.9999 35.078 21.2619 34.934 20.5299 34.694C19.8099 34.454 19.1319 34.1 18.4959 33.632Z" fill="#2222BB"/>
<path d="M9.932 34.676L9.55822 35.6035L9.56651 35.6069L9.57486 35.6101L9.932 34.676ZM7.826 33.326L7.11889 34.0331L7.12611 34.0403L7.13347 34.0474L7.826 33.326ZM6.44 31.274L7.35841 30.8784L7.35841 30.8784L6.44 31.274ZM6.44 26.126L7.35841 26.5216L7.35841 26.5216L6.44 26.126ZM7.844 24.092L8.53657 24.8134L8.54393 24.8062L7.844 24.092ZM9.95 22.742L10.3118 23.6743L10.319 23.6714L9.95 22.742ZM15.296 22.76L14.9153 23.6847L14.9234 23.688L14.9316 23.6912L15.296 22.76ZM17.402 24.218L18.098 24.9361L18.7857 24.2695L18.1494 23.5536L17.402 24.218ZM16.232 25.352L15.5079 26.0417L16.2036 26.7722L16.928 26.0701L16.232 25.352ZM14.612 24.236L14.2248 25.158L14.2327 25.1613L14.2406 25.1645L14.612 24.236ZM10.706 24.218L10.3409 23.287L10.3346 23.2895L10.706 24.218ZM9.14 25.226L8.44265 24.5093L8.44264 24.5093L9.14 25.226ZM8.096 26.774L7.17397 26.3867L7.17015 26.3961L8.096 26.774ZM8.096 30.644L7.16752 31.0154L7.17205 31.0267L7.17686 31.0379L8.096 30.644ZM9.14 32.174L8.44265 32.8907L8.44265 32.8907L9.14 32.174ZM10.706 33.182L10.3346 34.1105L10.3409 34.113L10.706 33.182ZM14.612 33.182L14.9834 34.1105L14.9913 34.1073L14.9992 34.104L14.612 33.182ZM16.232 32.03L16.928 31.3119L16.195 30.6015L15.4998 31.3489L16.232 32.03ZM17.402 33.164L18.1494 33.8284L18.7857 33.1125L18.098 32.4459L17.402 33.164ZM15.296 34.64L14.92 33.7134L14.9153 33.7153L15.296 34.64ZM12.596 34.144C11.746 34.144 10.9804 34.0062 10.2891 33.7419L9.57486 35.6101C10.5156 35.9698 11.526 36.144 12.596 36.144V34.144ZM10.3058 33.7485C9.61513 33.4702 9.02254 33.0885 8.51853 32.6046L7.13347 34.0474C7.82946 34.7155 8.64087 35.2338 9.55822 35.6035L10.3058 33.7485ZM8.53311 32.6189C8.03655 32.1223 7.64542 31.5446 7.35841 30.8784L5.52159 31.6696C5.90658 32.5634 6.43945 33.3537 7.11889 34.0331L8.53311 32.6189ZM7.35841 30.8784C7.0815 30.2355 6.936 29.5139 6.936 28.7H4.936C4.936 29.7581 5.1265 30.7525 5.52159 31.6696L7.35841 30.8784ZM6.936 28.7C6.936 27.8861 7.0815 27.1645 7.35841 26.5216L5.52159 25.7304C5.1265 26.6475 4.936 27.6419 4.936 28.7H6.936ZM7.35841 26.5216C7.64275 25.8615 8.03487 25.295 8.53653 24.8134L7.15147 23.3706C6.45313 24.041 5.90925 24.8305 5.52159 25.7304L7.35841 26.5216ZM8.54393 24.8062C9.04455 24.3156 9.63066 23.9386 10.3118 23.6743L9.58823 21.8097C8.66134 22.1694 7.84345 22.6924 7.14407 23.3778L8.54393 24.8062ZM10.319 23.6714C11.0071 23.3982 11.7685 23.256 12.614 23.256V21.256C11.5395 21.256 10.5249 21.4378 9.58097 21.8126L10.319 23.6714ZM12.614 23.256C13.4687 23.256 14.2317 23.4032 14.9153 23.6847L15.6768 21.8353C14.7283 21.4448 13.7033 21.256 12.614 21.256V23.256ZM14.9316 23.6912C15.6166 23.9593 16.1862 24.3554 16.6546 24.8824L18.1494 23.5536C17.4658 22.7846 16.6314 22.2087 15.6604 21.8288L14.9316 23.6912ZM16.706 23.4999L15.536 24.6339L16.928 26.0701L18.098 24.9361L16.706 23.4999ZM16.9561 24.6623C16.3848 24.0625 15.7268 23.6049 14.9834 23.3075L14.2406 25.1645C14.6972 25.3471 15.1192 25.6335 15.5079 26.0417L16.9561 24.6623ZM14.9992 23.314C14.2704 23.0079 13.4961 22.858 12.686 22.858V24.858C13.2439 24.858 13.7536 24.9601 14.2248 25.158L14.9992 23.314ZM12.686 22.858C11.8627 22.858 11.0779 22.998 10.3409 23.287L11.0711 25.149C11.5581 24.958 12.0933 24.858 12.686 24.858V22.858ZM10.3346 23.2895C9.61849 23.576 8.98444 23.9821 8.44265 24.5093L9.83736 25.9427C10.1836 25.6059 10.5935 25.34 11.0774 25.1465L10.3346 23.2895ZM8.44264 24.5093C7.89758 25.0396 7.47534 25.6693 7.17402 26.3868L9.01798 27.1612C9.22066 26.6787 9.49442 26.2764 9.83736 25.9427L8.44264 24.5093ZM7.17015 26.3961C6.87668 27.1151 6.736 27.8869 6.736 28.7H8.736C8.736 28.1211 8.83532 27.6089 9.02185 27.1519L7.17015 26.3961ZM6.736 28.7C6.736 29.5133 6.87674 30.2884 7.16752 31.0154L9.02448 30.2726C8.83526 29.7996 8.736 29.2787 8.736 28.7H6.736ZM7.17686 31.0379C7.47905 31.743 7.90106 32.3638 8.44265 32.8907L9.83736 31.4573C9.49094 31.1202 9.21695 30.721 9.01515 30.2501L7.17686 31.0379ZM8.44265 32.8907C8.98444 33.4179 9.61849 33.824 10.3346 34.1105L11.0774 32.2535C10.5935 32.06 10.1836 31.7941 9.83735 31.4573L8.44265 32.8907ZM10.3409 34.113C11.0779 34.402 11.8627 34.542 12.686 34.542V32.542C12.0933 32.542 11.5581 32.442 11.0711 32.251L10.3409 34.113ZM12.686 34.542C13.4897 34.542 14.2585 34.4004 14.9834 34.1105L14.2406 32.2535C13.7655 32.4436 13.2503 32.542 12.686 32.542V34.542ZM14.9992 34.104C15.7406 33.7926 16.3957 33.3222 16.9642 32.7111L15.4998 31.3489C15.1083 31.7698 14.6834 32.0674 14.2248 32.26L14.9992 34.104ZM15.536 32.7481L16.706 33.8821L18.098 32.4459L16.928 31.3119L15.536 32.7481ZM16.6546 32.4996C16.1838 33.0293 15.6102 33.4333 14.92 33.7134L15.672 35.5666C16.6378 35.1747 17.4682 34.5947 18.1494 33.8284L16.6546 32.4996ZM14.9153 33.7153C14.2332 33.9962 13.4644 34.144 12.596 34.144V36.144C13.6956 36.144 14.7268 35.9558 15.6768 35.5647L14.9153 33.7153ZM18.4959 33.632L17.5919 33.2044L17.2397 33.9492L17.9032 34.4374L18.4959 33.632ZM19.1259 32.3L19.7422 31.5125L18.7569 30.7414L18.2219 31.8724L19.1259 32.3ZM20.9439 33.272L20.6329 34.2224L20.6379 34.224L20.9439 33.272ZM22.9419 33.614L22.9237 34.6138L22.9328 34.614H22.9419V33.614ZM24.7599 33.344L24.4559 32.3913L24.4499 32.3933L24.7599 33.344ZM25.8219 29.726L25.2762 30.564L25.285 30.5697L25.8219 29.726ZM20.8539 29.222H19.8539V30.222H20.8539V29.222ZM20.8539 27.764V26.764H19.8539V27.764H20.8539ZM25.4079 27.278L25.9974 28.0858L26.0011 28.0831L25.4079 27.278ZM25.6779 24.776L24.9145 25.4219L24.9279 25.4378L24.942 25.4531L25.6779 24.776ZM24.5799 24.074L24.2562 25.0202L24.2637 25.0227L24.5799 24.074ZM23.0139 23.84L22.9931 24.8398L23.0035 24.84H23.0139V23.84ZM21.2319 24.074L21.4789 25.043L21.4878 25.0408L21.4966 25.0383L21.2319 24.074ZM19.4679 24.83L18.5363 25.1935L18.9724 26.3108L19.993 25.681L19.4679 24.83ZM18.8919 23.354L18.4017 22.4824L17.6445 22.9083L17.9603 23.7175L18.8919 23.354ZM21.2859 22.454L21.4848 23.4341L21.4955 23.4318L21.2859 22.454ZM23.7159 22.292L23.624 23.2878L23.6316 23.2885L23.6392 23.2891L23.7159 22.292ZM25.8219 22.832L25.3886 23.7333L25.399 23.7382L25.4094 23.743L25.8219 22.832ZM27.3339 23.984L26.5435 24.5966L26.552 24.6076L26.5608 24.6183L27.3339 23.984ZM27.4419 27.278L28.2673 27.8427L28.274 27.8327L27.4419 27.278ZM26.1459 28.34L26.5446 29.2571L26.553 29.2535L26.5612 29.2497L26.1459 28.34ZM24.2199 28.7L23.2307 28.5535L23.0609 29.7H24.2199V28.7ZM24.2919 28.214V27.214H23.4292L23.3027 28.0675L24.2919 28.214ZM26.4699 28.628L26.0588 29.5396L26.0695 29.5444L26.0803 29.549L26.4699 28.628ZM27.9099 29.762L27.0841 30.326L27.0888 30.3328L27.0935 30.3395L27.9099 29.762ZM27.9639 33.11L28.796 33.6647L28.8024 33.655L27.9639 33.11ZM26.6859 34.298L27.1947 35.1589L27.2004 35.1555L26.6859 34.298ZM24.8679 34.982L24.6619 34.0034L24.6584 34.0042L24.8679 34.982ZM22.7439 35.126L22.6795 36.1239L22.7439 35.126ZM20.5299 34.694L20.2137 35.6427L20.2184 35.6442L20.5299 34.694ZM19.3999 34.0596L20.0299 32.7276L18.2219 31.8724L17.5919 33.2044L19.3999 34.0596ZM18.5096 33.0875C19.1523 33.5904 19.8614 33.9699 20.6329 34.2224L21.255 32.3216C20.7065 32.1421 20.2036 31.8736 19.7422 31.5125L18.5096 33.0875ZM20.6379 34.224C21.3966 34.4679 22.1594 34.5999 22.9237 34.6138L22.9601 32.6142C22.4044 32.6041 21.8353 32.5081 21.2499 32.32L20.6379 34.224ZM22.9419 34.614C23.693 34.614 24.4052 34.5115 25.0699 34.2947L24.4499 32.3933C24.0106 32.5365 23.5108 32.614 22.9419 32.614V34.614ZM25.064 34.2967C25.7582 34.0751 26.3666 33.7246 26.841 33.2163L25.3789 31.8517C25.1812 32.0634 24.8897 32.2529 24.4559 32.3913L25.064 34.2967ZM26.841 33.2163C27.363 32.657 27.6139 31.9633 27.6139 31.202H25.6139C25.6139 31.4967 25.5288 31.691 25.3789 31.8517L26.841 33.2163ZM27.6139 31.202C27.6139 30.2267 27.1874 29.4096 26.3588 28.8823L25.285 30.5697C25.5125 30.7144 25.6139 30.8813 25.6139 31.202H27.6139ZM26.3676 28.888C25.627 28.4058 24.6889 28.222 23.6619 28.222V30.222C24.4829 30.222 24.9848 30.3742 25.2762 30.564L26.3676 28.888ZM23.6619 28.222H20.8539V30.222H23.6619V28.222ZM21.8539 29.222V27.764H19.8539V29.222H21.8539ZM20.8539 28.764H23.5359V26.764H20.8539V28.764ZM23.5359 28.764C24.458 28.764 25.3195 28.5805 25.9974 28.0858L24.8185 26.4702C24.6084 26.6235 24.2218 26.764 23.5359 26.764V28.764ZM26.0011 28.0831C26.7242 27.5503 27.0919 26.7835 27.0919 25.892H25.0919C25.0919 26.1765 25.0037 26.3337 24.8147 26.4729L26.0011 28.0831ZM27.0919 25.892C27.0919 25.2215 26.8755 24.6007 26.4139 24.0989L24.942 25.4531C25.0324 25.5513 25.0919 25.6745 25.0919 25.892H27.0919ZM26.4413 24.1301C26.0364 23.6516 25.502 23.3273 24.8961 23.1253L24.2637 25.0227C24.5939 25.1327 24.7914 25.2764 24.9145 25.4219L26.4413 24.1301ZM24.9036 23.1278C24.3234 22.9293 23.6887 22.84 23.0139 22.84V24.84C23.5152 24.84 23.9245 24.9067 24.2562 25.0202L24.9036 23.1278ZM23.0348 22.8402C22.3531 22.826 21.6628 22.9187 20.9672 23.1097L21.4966 25.0383C22.025 24.8933 22.5227 24.83 22.9931 24.8398L23.0348 22.8402ZM20.9849 23.105C20.27 23.2872 19.5887 23.5804 18.9428 23.979L19.993 25.681C20.4751 25.3836 20.9698 25.1728 21.4789 25.043L20.9849 23.105ZM20.3995 24.4665L19.8235 22.9905L17.9603 23.7175L18.5363 25.1935L20.3995 24.4665ZM19.3822 24.2256C20.0632 23.8425 20.7633 23.5804 21.4848 23.434L21.0871 21.474C20.1525 21.6636 19.2566 22.0015 18.4017 22.4824L19.3822 24.2256ZM21.4955 23.4318C22.246 23.271 22.9541 23.2259 23.624 23.2878L23.8078 21.2962C22.9178 21.2141 22.0059 21.277 21.0764 21.4762L21.4955 23.4318ZM23.6392 23.2891C24.3114 23.3408 24.8901 23.4936 25.3886 23.7333L26.2552 21.9307C25.5057 21.5704 24.6804 21.3632 23.7926 21.2949L23.6392 23.2891ZM25.4094 23.743C25.9194 23.9739 26.2853 24.2634 26.5435 24.5966L28.1243 23.3714C27.6385 22.7446 26.9965 22.2661 26.2344 21.921L25.4094 23.743ZM26.5608 24.6183C26.7845 24.8909 26.9099 25.225 26.9099 25.676H28.9099C28.9099 24.807 28.6513 24.0131 28.107 23.3497L26.5608 24.6183ZM26.9099 25.676C26.9099 26.0924 26.8049 26.4307 26.6099 26.7233L28.274 27.8327C28.7029 27.1893 28.9099 26.4596 28.9099 25.676H26.9099ZM26.6166 26.7133C26.4173 27.0046 26.1339 27.2462 25.7306 27.4303L26.5612 29.2497C27.262 28.9298 27.8426 28.4634 28.2672 27.8427L26.6166 26.7133ZM25.7472 27.4229C25.3451 27.5978 24.8437 27.7 24.2199 27.7V29.7C25.0601 29.7 25.8427 29.5622 26.5446 29.2571L25.7472 27.4229ZM25.2091 28.8465L25.2811 28.3605L23.3027 28.0675L23.2307 28.5535L25.2091 28.8465ZM24.2919 29.214C25.0247 29.214 25.6042 29.3346 26.0588 29.5396L26.881 27.7164C26.1116 27.3694 25.2391 27.214 24.2919 27.214V29.214ZM26.0803 29.549C26.5526 29.7488 26.8706 30.0133 27.0841 30.326L28.7357 29.198C28.2773 28.5267 27.6353 28.0352 26.8596 27.707L26.0803 29.549ZM27.0935 30.3395C27.3129 30.6497 27.4319 31.0144 27.4319 31.472H29.4319C29.4319 30.6336 29.2029 29.8583 28.7263 29.1845L27.0935 30.3395ZM27.4319 31.472C27.4319 31.9045 27.3247 32.2586 27.1255 32.565L28.8024 33.655C29.2272 33.0014 29.4319 32.2635 29.4319 31.472H27.4319ZM27.1319 32.5553C26.9113 32.8861 26.5998 33.1835 26.1714 33.4405L27.2004 35.1555C27.8521 34.7645 28.3925 34.2699 28.796 33.6647L27.1319 32.5553ZM26.1772 33.4371C25.7551 33.6865 25.2539 33.8788 24.6619 34.0035L25.0739 35.9605C25.8499 35.7972 26.5607 35.5335 27.1947 35.1589L26.1772 33.4371ZM24.6584 34.0042C24.0836 34.1274 23.4682 34.1707 22.8083 34.1281L22.6795 36.1239C23.5076 36.1773 24.3082 36.1246 25.0775 35.9598L24.6584 34.0042ZM22.8083 34.1281C22.1511 34.0857 21.4961 33.9584 20.8415 33.7438L20.2184 35.6442C21.0278 35.9096 21.8487 36.0703 22.6795 36.1239L22.8083 34.1281ZM20.8461 33.7453C20.2292 33.5397 19.6439 33.2352 19.0886 32.8266L17.9032 34.4374C18.6199 34.9648 19.3907 35.3683 20.2137 35.6427L20.8461 33.7453Z" fill="black" mask="url(#path-14-outside-6_80_4)"/>
<mask id="path-16-outside-7_80_4" maskUnits="userSpaceOnUse" x="82" y="21" width="28" height="16" fill="black">
<rect fill="white" x="82" y="21" width="28" height="16"/>
<path d="M90.596 35.144C89.636 35.144 88.748 34.988 87.932 34.676C87.128 34.352 86.426 33.902 85.826 33.326C85.238 32.738 84.776 32.054 84.44 31.274C84.104 30.494 83.936 29.636 83.936 28.7C83.936 27.764 84.104 26.906 84.44 26.126C84.776 25.346 85.244 24.668 85.844 24.092C86.444 23.504 87.146 23.054 87.95 22.742C88.766 22.418 89.654 22.256 90.614 22.256C91.586 22.256 92.48 22.424 93.296 22.76C94.124 23.084 94.826 23.57 95.402 24.218L94.232 25.352C93.752 24.848 93.212 24.476 92.612 24.236C92.012 23.984 91.37 23.858 90.686 23.858C89.978 23.858 89.318 23.978 88.706 24.218C88.106 24.458 87.584 24.794 87.14 25.226C86.696 25.658 86.348 26.174 86.096 26.774C85.856 27.362 85.736 28.004 85.736 28.7C85.736 29.396 85.856 30.044 86.096 30.644C86.348 31.232 86.696 31.742 87.14 32.174C87.584 32.606 88.106 32.942 88.706 33.182C89.318 33.422 89.978 33.542 90.686 33.542C91.37 33.542 92.012 33.422 92.612 33.182C93.212 32.93 93.752 32.546 94.232 32.03L95.402 33.164C94.826 33.812 94.124 34.304 93.296 34.64C92.48 34.976 91.58 35.144 90.596 35.144ZM97.8819 35V22.4H103.3C104.668 22.4 105.742 22.676 106.522 23.228C107.302 23.78 107.692 24.584 107.692 25.64C107.692 26.672 107.32 27.464 106.576 28.016C105.832 28.556 104.854 28.826 103.642 28.826L103.966 28.286C105.37 28.286 106.444 28.568 107.188 29.132C107.944 29.684 108.322 30.494 108.322 31.562C108.322 32.642 107.926 33.488 107.134 34.1C106.354 34.7 105.19 35 103.642 35H97.8819ZM99.6639 33.578H103.606C104.566 33.578 105.286 33.404 105.766 33.056C106.258 32.696 106.504 32.15 106.504 31.418C106.504 30.686 106.258 30.152 105.766 29.816C105.286 29.48 104.566 29.312 103.606 29.312H99.6639V33.578ZM99.6639 27.944H103.174C104.05 27.944 104.716 27.77 105.172 27.422C105.64 27.074 105.874 26.564 105.874 25.892C105.874 25.208 105.64 24.692 105.172 24.344C104.716 23.996 104.05 23.822 103.174 23.822H99.6639V27.944Z"/>
</mask>
<path d="M90.596 35.144C89.636 35.144 88.748 34.988 87.932 34.676C87.128 34.352 86.426 33.902 85.826 33.326C85.238 32.738 84.776 32.054 84.44 31.274C84.104 30.494 83.936 29.636 83.936 28.7C83.936 27.764 84.104 26.906 84.44 26.126C84.776 25.346 85.244 24.668 85.844 24.092C86.444 23.504 87.146 23.054 87.95 22.742C88.766 22.418 89.654 22.256 90.614 22.256C91.586 22.256 92.48 22.424 93.296 22.76C94.124 23.084 94.826 23.57 95.402 24.218L94.232 25.352C93.752 24.848 93.212 24.476 92.612 24.236C92.012 23.984 91.37 23.858 90.686 23.858C89.978 23.858 89.318 23.978 88.706 24.218C88.106 24.458 87.584 24.794 87.14 25.226C86.696 25.658 86.348 26.174 86.096 26.774C85.856 27.362 85.736 28.004 85.736 28.7C85.736 29.396 85.856 30.044 86.096 30.644C86.348 31.232 86.696 31.742 87.14 32.174C87.584 32.606 88.106 32.942 88.706 33.182C89.318 33.422 89.978 33.542 90.686 33.542C91.37 33.542 92.012 33.422 92.612 33.182C93.212 32.93 93.752 32.546 94.232 32.03L95.402 33.164C94.826 33.812 94.124 34.304 93.296 34.64C92.48 34.976 91.58 35.144 90.596 35.144ZM97.8819 35V22.4H103.3C104.668 22.4 105.742 22.676 106.522 23.228C107.302 23.78 107.692 24.584 107.692 25.64C107.692 26.672 107.32 27.464 106.576 28.016C105.832 28.556 104.854 28.826 103.642 28.826L103.966 28.286C105.37 28.286 106.444 28.568 107.188 29.132C107.944 29.684 108.322 30.494 108.322 31.562C108.322 32.642 107.926 33.488 107.134 34.1C106.354 34.7 105.19 35 103.642 35H97.8819ZM99.6639 33.578H103.606C104.566 33.578 105.286 33.404 105.766 33.056C106.258 32.696 106.504 32.15 106.504 31.418C106.504 30.686 106.258 30.152 105.766 29.816C105.286 29.48 104.566 29.312 103.606 29.312H99.6639V33.578ZM99.6639 27.944H103.174C104.05 27.944 104.716 27.77 105.172 27.422C105.64 27.074 105.874 26.564 105.874 25.892C105.874 25.208 105.64 24.692 105.172 24.344C104.716 23.996 104.05 23.822 103.174 23.822H99.6639V27.944Z" fill="#2222BB"/>
<path d="M87.932 34.676L87.5582 35.6035L87.5665 35.6069L87.5749 35.6101L87.932 34.676ZM85.826 33.326L85.1189 34.0331L85.1261 34.0403L85.1335 34.0474L85.826 33.326ZM84.44 31.274L85.3584 30.8784L85.3584 30.8784L84.44 31.274ZM84.44 26.126L85.3584 26.5216L85.3584 26.5216L84.44 26.126ZM85.844 24.092L86.5366 24.8134L86.5439 24.8062L85.844 24.092ZM87.95 22.742L88.3118 23.6743L88.319 23.6714L87.95 22.742ZM93.296 22.76L92.9153 23.6847L92.9234 23.688L92.9316 23.6912L93.296 22.76ZM95.402 24.218L96.098 24.9361L96.7857 24.2695L96.1494 23.5536L95.402 24.218ZM94.232 25.352L93.5079 26.0417L94.2036 26.7722L94.928 26.0701L94.232 25.352ZM92.612 24.236L92.2248 25.158L92.2327 25.1613L92.2406 25.1645L92.612 24.236ZM88.706 24.218L88.3409 23.287L88.3346 23.2895L88.706 24.218ZM87.14 25.226L86.4426 24.5093L86.4426 24.5093L87.14 25.226ZM86.096 26.774L85.174 26.3867L85.1702 26.3961L86.096 26.774ZM86.096 30.644L85.1675 31.0154L85.1721 31.0267L85.1769 31.0379L86.096 30.644ZM87.14 32.174L86.4426 32.8907L86.4426 32.8907L87.14 32.174ZM88.706 33.182L88.3346 34.1105L88.3409 34.113L88.706 33.182ZM92.612 33.182L92.9834 34.1105L92.9913 34.1073L92.9992 34.104L92.612 33.182ZM94.232 32.03L94.928 31.3119L94.195 30.6015L93.4998 31.3489L94.232 32.03ZM95.402 33.164L96.1494 33.8284L96.7857 33.1125L96.098 32.4459L95.402 33.164ZM93.296 34.64L92.92 33.7134L92.9153 33.7153L93.296 34.64ZM90.596 34.144C89.746 34.144 88.9804 34.0062 88.2891 33.7419L87.5749 35.6101C88.5156 35.9698 89.526 36.144 90.596 36.144V34.144ZM88.3058 33.7485C87.6151 33.4702 87.0225 33.0885 86.5185 32.6046L85.1335 34.0474C85.8295 34.7155 86.6409 35.2338 87.5582 35.6035L88.3058 33.7485ZM86.5331 32.6189C86.0366 32.1223 85.6454 31.5446 85.3584 30.8784L83.5216 31.6696C83.9066 32.5634 84.4394 33.3537 85.1189 34.0331L86.5331 32.6189ZM85.3584 30.8784C85.0815 30.2355 84.936 29.5139 84.936 28.7H82.936C82.936 29.7581 83.1265 30.7525 83.5216 31.6696L85.3584 30.8784ZM84.936 28.7C84.936 27.8861 85.0815 27.1645 85.3584 26.5216L83.5216 25.7304C83.1265 26.6475 82.936 27.6419 82.936 28.7H84.936ZM85.3584 26.5216C85.6428 25.8615 86.0349 25.295 86.5365 24.8134L85.1515 23.3706C84.4531 24.041 83.9092 24.8305 83.5216 25.7304L85.3584 26.5216ZM86.5439 24.8062C87.0445 24.3156 87.6307 23.9386 88.3118 23.6743L87.5882 21.8097C86.6613 22.1694 85.8435 22.6924 85.1441 23.3778L86.5439 24.8062ZM88.319 23.6714C89.0071 23.3982 89.7685 23.256 90.614 23.256V21.256C89.5395 21.256 88.5249 21.4378 87.581 21.8126L88.319 23.6714ZM90.614 23.256C91.4687 23.256 92.2317 23.4032 92.9153 23.6847L93.6768 21.8353C92.7283 21.4448 91.7033 21.256 90.614 21.256V23.256ZM92.9316 23.6912C93.6166 23.9593 94.1862 24.3554 94.6546 24.8824L96.1494 23.5536C95.4658 22.7846 94.6314 22.2087 93.6604 21.8288L92.9316 23.6912ZM94.706 23.4999L93.536 24.6339L94.928 26.0701L96.098 24.9361L94.706 23.4999ZM94.9561 24.6623C94.3848 24.0625 93.7268 23.6049 92.9834 23.3075L92.2406 25.1645C92.6972 25.3471 93.1192 25.6335 93.5079 26.0417L94.9561 24.6623ZM92.9992 23.314C92.2704 23.0079 91.4961 22.858 90.686 22.858V24.858C91.2439 24.858 91.7536 24.9601 92.2248 25.158L92.9992 23.314ZM90.686 22.858C89.8627 22.858 89.0779 22.998 88.3409 23.287L89.0711 25.149C89.5581 24.958 90.0933 24.858 90.686 24.858V22.858ZM88.3346 23.2895C87.6185 23.576 86.9844 23.9821 86.4426 24.5093L87.8374 25.9427C88.1836 25.6059 88.5935 25.34 89.0774 25.1465L88.3346 23.2895ZM86.4426 24.5093C85.8976 25.0396 85.4753 25.6693 85.174 26.3868L87.018 27.1612C87.2207 26.6787 87.4944 26.2764 87.8374 25.9427L86.4426 24.5093ZM85.1702 26.3961C84.8767 27.1151 84.736 27.8869 84.736 28.7H86.736C86.736 28.1211 86.8353 27.6089 87.0218 27.1519L85.1702 26.3961ZM84.736 28.7C84.736 29.5133 84.8767 30.2884 85.1675 31.0154L87.0245 30.2726C86.8353 29.7996 86.736 29.2787 86.736 28.7H84.736ZM85.1769 31.0379C85.4791 31.743 85.9011 32.3638 86.4426 32.8907L87.8374 31.4573C87.4909 31.1202 87.2169 30.721 87.0151 30.2501L85.1769 31.0379ZM86.4426 32.8907C86.9844 33.4179 87.6185 33.824 88.3346 34.1105L89.0774 32.2535C88.5935 32.06 88.1836 31.7941 87.8374 31.4573L86.4426 32.8907ZM88.3409 34.113C89.0779 34.402 89.8627 34.542 90.686 34.542V32.542C90.0933 32.542 89.5581 32.442 89.0711 32.251L88.3409 34.113ZM90.686 34.542C91.4897 34.542 92.2585 34.4004 92.9834 34.1105L92.2406 32.2535C91.7655 32.4436 91.2503 32.542 90.686 32.542V34.542ZM92.9992 34.104C93.7406 33.7926 94.3957 33.3222 94.9642 32.7111L93.4998 31.3489C93.1083 31.7698 92.6834 32.0674 92.2248 32.26L92.9992 34.104ZM93.536 32.7481L94.706 33.8821L96.098 32.4459L94.928 31.3119L93.536 32.7481ZM94.6546 32.4996C94.1838 33.0293 93.6102 33.4333 92.92 33.7134L93.672 35.5666C94.6378 35.1747 95.4682 34.5947 96.1494 33.8284L94.6546 32.4996ZM92.9153 33.7153C92.2332 33.9962 91.4644 34.144 90.596 34.144V36.144C91.6956 36.144 92.7268 35.9558 93.6768 35.5647L92.9153 33.7153ZM97.8819 35H96.8819V36H97.8819V35ZM97.8819 22.4V21.4H96.8819V22.4H97.8819ZM106.576 28.016L107.163 28.8253L107.172 28.8191L106.576 28.016ZM103.642 28.826L102.784 28.3115L101.876 29.826H103.642V28.826ZM103.966 28.286V27.286H103.4L103.108 27.7715L103.966 28.286ZM107.188 29.132L106.584 29.9289L106.591 29.9343L106.598 29.9396L107.188 29.132ZM107.134 34.1L107.744 34.8926L107.745 34.8913L107.134 34.1ZM99.6639 33.578H98.6639V34.578H99.6639V33.578ZM105.766 33.056L106.353 33.8656L106.356 33.863L105.766 33.056ZM105.766 29.816L105.192 30.6353L105.202 30.6418L105.766 29.816ZM99.6639 29.312V28.312H98.6639V29.312H99.6639ZM99.6639 27.944H98.6639V28.944H99.6639V27.944ZM105.172 27.422L104.575 26.6195L104.565 26.627L105.172 27.422ZM105.172 24.344L104.565 25.139L104.575 25.1465L105.172 24.344ZM99.6639 23.822V22.822H98.6639V23.822H99.6639ZM98.8819 35V22.4H96.8819V35H98.8819ZM97.8819 23.4H103.3V21.4H97.8819V23.4ZM103.3 23.4C104.547 23.4 105.392 23.6533 105.944 24.0443L107.1 22.4117C106.092 21.6987 104.789 21.4 103.3 21.4V23.4ZM105.944 24.0443C106.429 24.387 106.692 24.8688 106.692 25.64H108.692C108.692 24.2992 108.175 23.173 107.1 22.4117L105.944 24.0443ZM106.692 25.64C106.692 26.397 106.438 26.873 105.98 27.2129L107.172 28.8191C108.202 28.055 108.692 26.947 108.692 25.64H106.692ZM105.989 27.2067C105.462 27.5886 104.71 27.826 103.642 27.826V29.826C104.998 29.826 106.201 29.5234 107.163 28.8253L105.989 27.2067ZM104.499 29.3405L104.823 28.8005L103.108 27.7715L102.784 28.3115L104.499 29.3405ZM103.966 29.286C105.256 29.286 106.082 29.5483 106.584 29.9289L107.792 28.3351C106.806 27.5877 105.484 27.286 103.966 27.286V29.286ZM106.598 29.9396C107.057 30.2748 107.322 30.7616 107.322 31.562H109.322C109.322 30.2264 108.831 29.0932 107.778 28.3244L106.598 29.9396ZM107.322 31.562C107.322 32.3605 107.048 32.9027 106.522 33.3087L107.745 34.8913C108.804 34.0733 109.322 32.9235 109.322 31.562H107.322ZM106.524 33.3074C105.994 33.7153 105.088 34 103.642 34V36C105.292 36 106.714 35.6847 107.744 34.8926L106.524 33.3074ZM103.642 34H97.8819V36H103.642V34ZM99.6639 34.578H103.606V32.578H99.6639V34.578ZM103.606 34.578C104.657 34.578 105.626 34.3928 106.353 33.8656L105.179 32.2464C104.946 32.4152 104.475 32.578 103.606 32.578V34.578ZM106.356 33.863C107.159 33.2758 107.504 32.3967 107.504 31.418H105.504C105.504 31.9033 105.357 32.1162 105.175 32.249L106.356 33.863ZM107.504 31.418C107.504 30.4413 107.159 29.5562 106.33 28.9902L105.202 30.6418C105.357 30.7478 105.504 30.9307 105.504 31.418H107.504ZM106.339 28.9968C105.615 28.4895 104.652 28.312 103.606 28.312V30.312C104.48 30.312 104.957 30.4705 105.192 30.6352L106.339 28.9968ZM103.606 28.312H99.6639V30.312H103.606V28.312ZM98.6639 29.312V33.578H100.664V29.312H98.6639ZM99.6639 28.944H103.174V26.944H99.6639V28.944ZM103.174 28.944C104.16 28.944 105.078 28.7517 105.779 28.217L104.565 26.627C104.354 26.7883 103.94 26.944 103.174 26.944V28.944ZM105.769 28.2245C106.531 27.6573 106.874 26.8253 106.874 25.892H104.874C104.874 26.3027 104.748 26.4907 104.575 26.6195L105.769 28.2245ZM106.874 25.892C106.874 24.9538 106.536 24.1124 105.769 23.5415L104.575 25.1465C104.744 25.2716 104.874 25.4622 104.874 25.892H106.874ZM105.779 23.549C105.078 23.0143 104.16 22.822 103.174 22.822V24.822C103.94 24.822 104.354 24.9777 104.565 25.139L105.779 23.549ZM103.174 22.822H99.6639V24.822H103.174V22.822ZM98.6639 23.822V27.944H100.664V23.822H98.6639Z" fill="black" mask="url(#path-16-outside-7_80_4)"/>
<mask id="path-18-outside-8_80_4" maskUnits="userSpaceOnUse" x="77" y="89" width="34" height="16" fill="black">
<rect fill="white" x="77" y="89" width="34" height="16"/>
<path d="M78.962 103V90.4H80.744V95.8H84.002V97.42H80.744V103H78.962ZM89.402 103.144C88.49 103.144 87.644 102.988 86.864 102.676C86.084 102.352 85.406 101.902 84.83 101.326C84.254 100.738 83.804 100.054 83.48 99.274C83.168 98.494 83.012 97.636 83.012 96.7C83.012 95.764 83.168 94.906 83.48 94.126C83.804 93.346 84.254 92.668 84.83 92.092C85.406 91.504 86.084 91.054 86.864 90.742C87.644 90.418 88.49 90.256 89.402 90.256C90.314 90.256 91.16 90.418 91.94 90.742C92.732 91.054 93.416 91.504 93.992 92.092C94.568 92.668 95.012 93.346 95.324 94.126C95.648 94.906 95.81 95.764 95.81 96.7C95.81 97.636 95.648 98.494 95.324 99.274C95.012 100.054 94.568 100.738 93.992 101.326C93.416 101.902 92.732 102.352 91.94 102.676C91.16 102.988 90.314 103.144 89.402 103.144ZM89.402 101.524C90.062 101.524 90.668 101.41 91.22 101.182C91.784 100.942 92.27 100.606 92.678 100.174C93.098 99.742 93.422 99.232 93.65 98.644C93.89 98.056 94.01 97.408 94.01 96.7C94.01 95.992 93.89 95.344 93.65 94.756C93.422 94.168 93.098 93.658 92.678 93.226C92.27 92.794 91.784 92.464 91.22 92.236C90.668 91.996 90.068 91.876 89.42 91.876C88.772 91.876 88.166 91.996 87.602 92.236C87.05 92.464 86.564 92.794 86.144 93.226C85.736 93.658 85.412 94.168 85.172 94.756C84.944 95.344 84.83 95.992 84.83 96.7C84.83 97.408 84.944 98.056 85.172 98.644C85.412 99.232 85.736 99.742 86.144 100.174C86.564 100.606 87.05 100.942 87.602 101.182C88.166 101.41 88.766 101.524 89.402 101.524ZM98.7374 103V90.4H104.155C105.523 90.4 106.597 90.676 107.377 91.228C108.157 91.78 108.547 92.584 108.547 93.64C108.547 94.672 108.175 95.464 107.431 96.016C106.687 96.556 105.709 96.826 104.497 96.826L104.821 96.286C106.225 96.286 107.299 96.568 108.043 97.132C108.799 97.684 109.177 98.494 109.177 99.562C109.177 100.642 108.781 101.488 107.989 102.1C107.209 102.7 106.045 103 104.497 103H98.7374ZM100.519 101.578H104.461C105.421 101.578 106.141 101.404 106.621 101.056C107.113 100.696 107.359 100.15 107.359 99.418C107.359 98.686 107.113 98.152 106.621 97.816C106.141 97.48 105.421 97.312 104.461 97.312H100.519V101.578ZM100.519 95.944H104.029C104.905 95.944 105.571 95.77 106.027 95.422C106.495 95.074 106.729 94.564 106.729 93.892C106.729 93.208 106.495 92.692 106.027 92.344C105.571 91.996 104.905 91.822 104.029 91.822H100.519V95.944Z"/>
</mask>
<path d="M78.962 103V90.4H80.744V95.8H84.002V97.42H80.744V103H78.962ZM89.402 103.144C88.49 103.144 87.644 102.988 86.864 102.676C86.084 102.352 85.406 101.902 84.83 101.326C84.254 100.738 83.804 100.054 83.48 99.274C83.168 98.494 83.012 97.636 83.012 96.7C83.012 95.764 83.168 94.906 83.48 94.126C83.804 93.346 84.254 92.668 84.83 92.092C85.406 91.504 86.084 91.054 86.864 90.742C87.644 90.418 88.49 90.256 89.402 90.256C90.314 90.256 91.16 90.418 91.94 90.742C92.732 91.054 93.416 91.504 93.992 92.092C94.568 92.668 95.012 93.346 95.324 94.126C95.648 94.906 95.81 95.764 95.81 96.7C95.81 97.636 95.648 98.494 95.324 99.274C95.012 100.054 94.568 100.738 93.992 101.326C93.416 101.902 92.732 102.352 91.94 102.676C91.16 102.988 90.314 103.144 89.402 103.144ZM89.402 101.524C90.062 101.524 90.668 101.41 91.22 101.182C91.784 100.942 92.27 100.606 92.678 100.174C93.098 99.742 93.422 99.232 93.65 98.644C93.89 98.056 94.01 97.408 94.01 96.7C94.01 95.992 93.89 95.344 93.65 94.756C93.422 94.168 93.098 93.658 92.678 93.226C92.27 92.794 91.784 92.464 91.22 92.236C90.668 91.996 90.068 91.876 89.42 91.876C88.772 91.876 88.166 91.996 87.602 92.236C87.05 92.464 86.564 92.794 86.144 93.226C85.736 93.658 85.412 94.168 85.172 94.756C84.944 95.344 84.83 95.992 84.83 96.7C84.83 97.408 84.944 98.056 85.172 98.644C85.412 99.232 85.736 99.742 86.144 100.174C86.564 100.606 87.05 100.942 87.602 101.182C88.166 101.41 88.766 101.524 89.402 101.524ZM98.7374 103V90.4H104.155C105.523 90.4 106.597 90.676 107.377 91.228C108.157 91.78 108.547 92.584 108.547 93.64C108.547 94.672 108.175 95.464 107.431 96.016C106.687 96.556 105.709 96.826 104.497 96.826L104.821 96.286C106.225 96.286 107.299 96.568 108.043 97.132C108.799 97.684 109.177 98.494 109.177 99.562C109.177 100.642 108.781 101.488 107.989 102.1C107.209 102.7 106.045 103 104.497 103H98.7374ZM100.519 101.578H104.461C105.421 101.578 106.141 101.404 106.621 101.056C107.113 100.696 107.359 100.15 107.359 99.418C107.359 98.686 107.113 98.152 106.621 97.816C106.141 97.48 105.421 97.312 104.461 97.312H100.519V101.578ZM100.519 95.944H104.029C104.905 95.944 105.571 95.77 106.027 95.422C106.495 95.074 106.729 94.564 106.729 93.892C106.729 93.208 106.495 92.692 106.027 92.344C105.571 91.996 104.905 91.822 104.029 91.822H100.519V95.944Z" fill="#2222BB"/>
<path d="M78.962 103H77.962V104H78.962V103ZM78.962 90.4V89.4H77.962V90.4H78.962ZM80.744 90.4H81.744V89.4H80.744V90.4ZM80.744 95.8H79.744V96.8H80.744V95.8ZM84.002 95.8H85.002V94.8H84.002V95.8ZM84.002 97.42V98.42H85.002V97.42H84.002ZM80.744 97.42V96.42H79.744V97.42H80.744ZM80.744 103V104H81.744V103H80.744ZM86.864 102.676L86.4804 103.6L86.4926 103.604L86.864 102.676ZM84.83 101.326L84.1156 102.026L84.1229 102.033L84.83 101.326ZM83.48 99.274L82.5514 99.6454L82.5565 99.6576L83.48 99.274ZM83.48 94.126L82.5564 93.7424L82.5515 93.7546L83.48 94.126ZM84.83 92.092L85.5371 92.7991L85.5444 92.7918L84.83 92.092ZM86.864 90.742L87.2354 91.6706L87.2476 91.6655L86.864 90.742ZM91.94 90.742L91.5564 91.6655L91.5649 91.669L91.5735 91.6724L91.94 90.742ZM93.992 92.092L93.2776 92.7918L93.2849 92.7991L93.992 92.092ZM95.324 94.126L94.3954 94.4974L94.4005 94.5096L95.324 94.126ZM95.324 99.274L94.4004 98.8904L94.3955 98.9026L95.324 99.274ZM93.992 101.326L94.6991 102.033L94.7064 102.026L93.992 101.326ZM91.94 102.676L92.3114 103.605L92.3186 103.602L91.94 102.676ZM91.22 101.182L91.6018 102.106L91.6116 102.102L91.22 101.182ZM92.678 100.174L91.961 99.4769L91.956 99.4821L91.951 99.4874L92.678 100.174ZM93.65 98.644L92.7242 98.2661L92.7208 98.2743L92.7176 98.2825L93.65 98.644ZM93.65 94.756L92.7176 95.1175L92.7208 95.1257L92.7242 95.1339L93.65 94.756ZM92.678 93.226L91.951 93.9126L91.956 93.9179L91.961 93.9231L92.678 93.226ZM91.22 92.236L90.8213 93.1531L90.8332 93.1582L90.8452 93.1631L91.22 92.236ZM87.602 92.236L87.9838 93.1603L87.9936 93.1562L87.602 92.236ZM86.144 93.226L85.427 92.5289L85.422 92.5341L85.417 92.5394L86.144 93.226ZM85.172 94.756L84.2462 94.3781L84.2428 94.3863L84.2396 94.3945L85.172 94.756ZM85.172 98.644L84.2396 99.0055L84.2428 99.0137L84.2462 99.0219L85.172 98.644ZM86.144 100.174L85.417 100.861L85.422 100.866L85.427 100.871L86.144 100.174ZM87.602 101.182L87.2033 102.099L87.2152 102.104L87.2272 102.109L87.602 101.182ZM79.962 103V90.4H77.962V103H79.962ZM78.962 91.4H80.744V89.4H78.962V91.4ZM79.744 90.4V95.8H81.744V90.4H79.744ZM80.744 96.8H84.002V94.8H80.744V96.8ZM83.002 95.8V97.42H85.002V95.8H83.002ZM84.002 96.42H80.744V98.42H84.002V96.42ZM79.744 97.42V103H81.744V97.42H79.744ZM80.744 102H78.962V104H80.744V102ZM89.402 102.144C88.6063 102.144 87.8875 102.008 87.2354 101.748L86.4926 103.604C87.4005 103.968 88.3737 104.144 89.402 104.144V102.144ZM87.2476 101.753C86.584 101.477 86.0171 101.099 85.5371 100.619L84.1229 102.033C84.7949 102.705 85.584 103.227 86.4804 103.599L87.2476 101.753ZM85.5444 100.626C85.0599 100.132 84.6799 99.5558 84.4035 98.8904L82.5565 99.6576C82.9281 100.552 83.4481 101.344 84.1156 102.026L85.5444 100.626ZM84.4085 98.9026C84.1488 98.2535 84.012 97.5233 84.012 96.7H82.012C82.012 97.7487 82.1872 98.7345 82.5515 99.6454L84.4085 98.9026ZM84.012 96.7C84.012 95.8767 84.1488 95.1465 84.4085 94.4974L82.5515 93.7546C82.1872 94.6655 82.012 95.6513 82.012 96.7H84.012ZM84.4035 94.5096C84.6791 93.846 85.0571 93.2791 85.5371 92.7991L84.1229 91.3849C83.4509 92.0569 82.9289 92.846 82.5565 93.7424L84.4035 94.5096ZM85.5444 92.7918C86.0211 92.3051 86.5816 91.932 87.2354 91.6705L86.4926 89.8135C85.5864 90.176 84.7909 90.7029 84.1156 91.3922L85.5444 92.7918ZM87.2476 91.6655C87.8966 91.3959 88.6111 91.256 89.402 91.256V89.256C88.3689 89.256 87.3914 89.4401 86.4804 89.8185L87.2476 91.6655ZM89.402 91.256C90.1929 91.256 90.9074 91.3959 91.5564 91.6655L92.3236 89.8185C91.4126 89.4401 90.4351 89.256 89.402 89.256V91.256ZM91.5735 91.6724C92.2392 91.9347 92.8035 92.3077 93.2776 92.7918L94.7064 91.3922C94.0285 90.7003 93.2248 90.1733 92.3065 89.8116L91.5735 91.6724ZM93.2849 92.7991C93.7621 93.2763 94.1322 93.8391 94.3955 94.4974L96.2525 93.7546C95.8918 92.8529 95.3739 92.0597 94.6991 91.3849L93.2849 92.7991ZM94.4005 94.5096C94.6688 95.1555 94.81 95.8814 94.81 96.7H96.81C96.81 95.6466 96.6272 94.6565 96.2475 93.7424L94.4005 94.5096ZM94.81 96.7C94.81 97.5186 94.6688 98.2445 94.4005 98.8904L96.2475 99.6576C96.6272 98.7435 96.81 97.7534 96.81 96.7H94.81ZM94.3955 98.9026C94.1315 99.5627 93.7594 100.134 93.2776 100.626L94.7064 102.026C95.3766 101.342 95.8925 100.545 96.2525 99.6454L94.3955 98.9026ZM93.2849 100.619C92.8075 101.096 92.2368 101.474 91.5614 101.75L92.3186 103.602C93.2272 103.23 94.0245 102.708 94.6991 102.033L93.2849 100.619ZM91.5686 101.748C90.9165 102.008 90.1977 102.144 89.402 102.144V104.144C90.4303 104.144 91.4035 103.968 92.3114 103.604L91.5686 101.748ZM89.402 102.524C90.1792 102.524 90.9166 102.389 91.6018 102.106L90.8382 100.258C90.4194 100.431 89.9448 100.524 89.402 100.524V102.524ZM91.6116 102.102C92.2982 101.81 92.8995 101.396 93.405 100.861L91.951 99.4874C91.6405 99.8161 91.2698 100.074 90.8284 100.262L91.6116 102.102ZM93.395 100.871C93.9129 100.338 94.3081 99.7127 94.5824 99.0055L92.7176 98.2825C92.5359 98.7513 92.2831 99.1457 91.961 99.4769L93.395 100.871ZM94.5758 99.0219C94.8701 98.3009 95.01 97.5227 95.01 96.7H93.01C93.01 97.2933 92.9099 97.8111 92.7242 98.2661L94.5758 99.0219ZM95.01 96.7C95.01 95.8773 94.8701 95.0991 94.5758 94.3781L92.7242 95.1339C92.9099 95.5889 93.01 96.1067 93.01 96.7H95.01ZM94.5824 94.3945C94.3081 93.6873 93.9129 93.0617 93.395 92.5289L91.961 93.9231C92.2831 94.2543 92.5359 94.6487 92.7176 95.1175L94.5824 94.3945ZM93.405 92.5394C92.8959 92.0003 92.2889 91.5895 91.5948 91.3089L90.8452 93.1631C91.2791 93.3385 91.6441 93.5877 91.951 93.9126L93.405 92.5394ZM91.6187 91.3189C90.9315 91.0201 90.1946 90.876 89.42 90.876V92.876C89.9414 92.876 90.4045 92.9719 90.8213 93.1531L91.6187 91.3189ZM89.42 90.876C88.6453 90.876 87.9053 91.0202 87.2104 91.3158L87.9936 93.1562C88.4267 92.9718 88.8987 92.876 89.42 92.876V90.876ZM87.2202 91.3117C86.541 91.5923 85.9412 92 85.427 92.5289L86.861 93.9231C87.1868 93.588 87.559 93.3357 87.9838 93.1603L87.2202 91.3117ZM85.417 92.5394C84.9185 93.0672 84.5296 93.6837 84.2462 94.3781L86.0978 95.1339C86.2944 94.6523 86.5535 94.2488 86.871 93.9126L85.417 92.5394ZM84.2396 94.3945C83.9618 95.111 83.83 95.8834 83.83 96.7H85.83C85.83 96.1006 85.9262 95.577 86.1044 95.1175L84.2396 94.3945ZM83.83 96.7C83.83 97.5166 83.9618 98.289 84.2396 99.0055L86.1044 98.2825C85.9262 97.823 85.83 97.2994 85.83 96.7H83.83ZM84.2462 99.0219C84.5296 99.7163 84.9185 100.333 85.417 100.861L86.871 99.4874C86.5535 99.1512 86.2944 98.7477 86.0978 98.2661L84.2462 99.0219ZM85.427 100.871C85.9377 101.396 86.5318 101.807 87.2033 102.099L88.0007 100.265C87.5682 100.077 87.1903 99.8157 86.861 99.4769L85.427 100.871ZM87.2272 102.109C87.9157 102.387 88.6435 102.524 89.402 102.524V100.524C88.8885 100.524 88.4163 100.433 87.9768 100.255L87.2272 102.109ZM98.7374 103H97.7374V104H98.7374V103ZM98.7374 90.4V89.4H97.7374V90.4H98.7374ZM107.431 96.016L108.019 96.8253L108.027 96.8191L107.431 96.016ZM104.497 96.826L103.64 96.3115L102.731 97.826H104.497V96.826ZM104.821 96.286V95.286H104.255L103.964 95.7715L104.821 96.286ZM108.043 97.132L107.439 97.9289L107.446 97.9343L107.454 97.9396L108.043 97.132ZM107.989 102.1L108.599 102.893L108.601 102.891L107.989 102.1ZM100.519 101.578H99.5194V102.578H100.519V101.578ZM106.621 101.056L107.208 101.866L107.212 101.863L106.621 101.056ZM106.621 97.816L106.048 98.6353L106.057 98.6418L106.621 97.816ZM100.519 97.312V96.312H99.5194V97.312H100.519ZM100.519 95.944H99.5194V96.944H100.519V95.944ZM106.027 95.422L105.431 94.6195L105.421 94.627L106.027 95.422ZM106.027 92.344L105.421 93.139L105.431 93.1465L106.027 92.344ZM100.519 91.822V90.822H99.5194V91.822H100.519ZM99.7374 103V90.4H97.7374V103H99.7374ZM98.7374 91.4H104.155V89.4H98.7374V91.4ZM104.155 91.4C105.402 91.4 106.247 91.6533 106.8 92.0443L107.955 90.4117C106.947 89.6987 105.644 89.4 104.155 89.4V91.4ZM106.8 92.0443C107.284 92.387 107.547 92.8688 107.547 93.64H109.547C109.547 92.2992 109.031 91.173 107.955 90.4117L106.8 92.0443ZM107.547 93.64C107.547 94.397 107.294 94.873 106.836 95.2129L108.027 96.8191C109.057 96.055 109.547 94.947 109.547 93.64H107.547ZM106.844 95.2067C106.318 95.5886 105.565 95.826 104.497 95.826V97.826C105.854 97.826 107.057 97.5234 108.019 96.8253L106.844 95.2067ZM105.355 97.3405L105.679 96.8005L103.964 95.7715L103.64 96.3115L105.355 97.3405ZM104.821 97.286C106.112 97.286 106.937 97.5483 107.439 97.9289L108.647 96.3351C107.662 95.5877 106.339 95.286 104.821 95.286V97.286ZM107.454 97.9396C107.913 98.2748 108.177 98.7616 108.177 99.562H110.177C110.177 98.2264 109.686 97.0932 108.633 96.3244L107.454 97.9396ZM108.177 99.562C108.177 100.361 107.903 100.903 107.378 101.309L108.601 102.891C109.659 102.073 110.177 100.923 110.177 99.562H108.177ZM107.38 101.307C106.849 101.715 105.943 102 104.497 102V104C106.148 104 107.569 103.685 108.599 102.893L107.38 101.307ZM104.497 102H98.7374V104H104.497V102ZM100.519 102.578H104.461V100.578H100.519V102.578ZM104.461 102.578C105.512 102.578 106.481 102.393 107.208 101.866L106.034 100.246C105.802 100.415 105.33 100.578 104.461 100.578V102.578ZM107.212 101.863C108.015 101.276 108.359 100.397 108.359 99.418H106.359C106.359 99.9033 106.212 100.116 106.031 100.249L107.212 101.863ZM108.359 99.418C108.359 98.4413 108.014 97.5562 107.185 96.9902L106.057 98.6418C106.213 98.7478 106.359 98.9307 106.359 99.418H108.359ZM107.195 96.9968C106.47 96.4895 105.507 96.312 104.461 96.312V98.312C105.335 98.312 105.813 98.4705 106.048 98.6352L107.195 96.9968ZM104.461 96.312H100.519V98.312H104.461V96.312ZM99.5194 97.312V101.578H101.519V97.312H99.5194ZM100.519 96.944H104.029V94.944H100.519V96.944ZM104.029 96.944C105.015 96.944 105.933 96.7517 106.634 96.217L105.421 94.627C105.209 94.7883 104.795 94.944 104.029 94.944V96.944ZM106.624 96.2245C107.387 95.6573 107.729 94.8253 107.729 93.892H105.729C105.729 94.3027 105.604 94.4907 105.431 94.6195L106.624 96.2245ZM107.729 93.892C107.729 92.9538 107.392 92.1124 106.624 91.5415L105.431 93.1465C105.599 93.2716 105.729 93.4622 105.729 93.892H107.729ZM106.634 91.549C105.933 91.0143 105.015 90.822 104.029 90.822V92.822C104.795 92.822 105.209 92.9777 105.421 93.139L106.634 91.549ZM104.029 90.822H100.519V92.822H104.029V90.822ZM99.5194 91.822V95.944H101.519V91.822H99.5194Z" fill="black" mask="url(#path-18-outside-8_80_4)"/>
<line x1="57" y1="30" x2="57" y2="20" stroke="black" stroke-width="2"/>
<line x1="57" y1="106" x2="57" y2="96" stroke="black" stroke-width="2"/>
<line x1="14" y1="63" x2="24" y2="63" stroke="black" stroke-width="2"/>
<line x1="90" y1="63" x2="100" y2="63" stroke="black" stroke-width="2"/>
<line x1="78.6464" y1="41.182" x2="82.182" y2="37.6465" stroke="black"/>
<line x1="77.3536" y1="83.6464" x2="80.8891" y2="87.182" stroke="black"/>
<line x1="31.3536" y1="38.6464" x2="34.8891" y2="42.182" stroke="black"/>
<line x1="32.6464" y1="87.182" x2="36.182" y2="83.6464" stroke="black"/>
</svg>
