<svg width="80" height="110" viewBox="0 0 80 110" fill="none" xmlns="http://www.w3.org/2000/svg">
<path d="M48.0094 98.2163H32.0124C29.891 98.2163 27.8566 97.3886 26.3566 95.9154C24.8566 94.4421 24.0139 92.444 24.0139 90.3605V75.2774C16.6881 72.1415 10.4868 66.9219 6.20984 60.2918C1.93287 53.6618 -0.223666 45.9253 0.0183506 38.0801C0.459037 28.1247 4.68337 18.6931 11.8576 11.6468C19.0318 4.60057 28.6348 0.451612 38.7711 0.0187869C48.0603 -0.263401 57.1597 2.64073 64.5056 8.2322C71.8515 13.8237 76.9853 21.7533 79.025 30.6587C81.0646 39.5641 79.8827 48.8891 75.6823 57.0315C71.4819 65.174 64.5253 71.6254 56.0079 75.2774V90.3605C56.0079 92.444 55.1652 94.4421 53.6651 95.9154C52.1651 97.3886 50.1307 98.2163 48.0094 98.2163ZM39.011 7.87459C30.9071 8.22971 23.232 11.5509 17.496 17.1846C11.7599 22.8183 8.37842 30.3565 8.01685 38.3158C7.80705 44.9771 9.75901 51.5314 13.5907 57.0316C17.4223 62.5318 22.9353 66.6931 29.3329 68.9142C30.1133 69.1821 30.79 69.681 31.2698 70.3422C31.7496 71.0034 32.0091 71.7944 32.0124 72.6064V90.3605H48.0094V72.6064C48.0126 71.7944 48.2721 71.0034 48.7519 70.3422C49.2317 69.681 49.9084 69.1821 50.6888 68.9142C55.8185 67.1283 60.3995 64.0868 63.9986 60.0773C67.5978 56.0678 70.096 51.2228 71.2571 46.0006C72.4182 40.7784 72.2038 35.3516 70.6341 30.2335C69.0644 25.1154 66.1914 20.4751 62.2867 16.7516C59.2316 13.787 55.5896 11.4696 51.5861 9.94265C47.5825 8.41576 43.3026 7.71189 39.011 7.87459Z" fill="black"/>
<path d="M52.0087 110H28.0132C26.9525 110 25.9353 109.586 25.1853 108.85C24.4353 108.113 24.0139 107.114 24.0139 106.072C24.0139 105.03 24.4353 104.031 25.1853 103.295C25.9353 102.558 26.9525 102.144 28.0132 102.144H52.0087C53.0693 102.144 54.0866 102.558 54.8366 103.295C55.5866 104.031 56.0079 105.03 56.0079 106.072C56.0079 107.114 55.5866 108.113 54.8366 108.85C54.0866 109.586 53.0693 110 52.0087 110Z" fill="black"/>
<path d="M36.0116 86.4326V68.6785C28.814 66.183 22.6105 61.5049 18.2972 55.3199C13.984 49.1349 11.7843 41.7633 12.0161 34.2701C12.376 22.4864 18.8548 14.9055 30.0927 9.44573C13.9757 9.72069 4.49749 23.5862 4.01758 38.198C3.78583 45.6912 5.98548 53.0628 10.2987 59.2478C14.612 65.4328 20.8155 70.1109 28.0131 72.6064V90.3605C28.0131 91.4022 28.4344 92.4013 29.1844 93.1379C29.9344 93.8746 30.9517 94.2884 32.0123 94.2884H48.0093C49.07 94.2884 50.0872 93.8746 50.8372 93.1379C51.5872 92.4013 52.0086 91.4022 52.0086 90.3605H40.0108C38.9502 90.3605 37.9329 89.9467 37.1829 89.21C36.4329 88.4734 36.0116 87.4743 36.0116 86.4326Z" fill="black"/>
</svg>
