<svg width="50" height="60" viewBox="0 0 50 60" fill="none" xmlns="http://www.w3.org/2000/svg">
<path d="M30.0058 53.5725H20.0077C18.6819 53.5725 17.4104 53.1211 16.4728 52.3175C15.5353 51.5139 15.0087 50.424 15.0087 49.2875V41.0604C10.43 39.3499 6.55426 36.5029 3.88115 32.8865C1.20804 29.2701 -0.139791 25.0502 0.0114691 20.771C0.286898 15.3407 2.9271 10.1962 7.411 6.35281C11.8949 2.5094 17.8967 0.246334 24.2319 0.0102474C30.0377 -0.143673 35.7248 1.4404 40.316 4.49029C44.9072 7.54018 48.1158 11.8655 49.3906 16.7229C50.6654 21.5804 49.9267 26.6668 47.3014 31.1081C44.6762 35.5494 40.3283 39.0684 35.0049 41.0604V49.2875C35.0049 50.424 34.4782 51.5139 33.5407 52.3175C32.6032 53.1211 31.3317 53.5725 30.0058 53.5725ZM24.3819 4.29523C19.317 4.48893 14.52 6.30049 10.935 9.37341C7.34996 12.4463 5.23651 16.5581 5.01053 20.8995C4.87941 24.533 6.09938 28.108 8.49417 31.1081C10.889 34.1083 14.3345 36.3781 18.333 37.5895C18.8208 37.7357 19.2437 38.0078 19.5436 38.3685C19.8435 38.7291 20.0057 39.1606 20.0077 39.6035V49.2875H30.0058V39.6035C30.0079 39.1606 30.17 38.7291 30.4699 38.3685C30.7698 38.0078 31.1928 37.7357 31.6805 37.5895C34.8866 36.6154 37.7497 34.9564 39.9991 32.7694C42.2486 30.5824 43.81 27.9397 44.5357 25.0912C45.2614 22.2428 45.1274 19.2827 44.1463 16.491C43.1653 13.6993 41.3696 11.1683 38.9292 9.13726C37.0197 7.52018 34.7435 6.25612 32.2413 5.42327C29.7391 4.59041 27.0641 4.20648 24.3819 4.29523Z" fill="#F9AE40"/>
<path d="M32.5054 60H17.5082C16.8453 60 16.2095 59.7743 15.7408 59.3725C15.272 58.9707 15.0087 58.4257 15.0087 57.8575C15.0087 57.2893 15.272 56.7443 15.7408 56.3425C16.2095 55.9407 16.8453 55.715 17.5082 55.715H32.5054C33.1683 55.715 33.8041 55.9407 34.2728 56.3425C34.7416 56.7443 35.0049 57.2893 35.0049 57.8575C35.0049 58.4257 34.7416 58.9707 34.2728 59.3725C33.8041 59.7743 33.1683 60 32.5054 60Z" fill="#F9AE40"/>
<path d="M22.5072 47.145V37.461C18.0088 36.0998 14.1315 33.5481 11.4358 30.1745C8.73999 26.8008 7.36521 22.78 7.51005 18.6928C7.73501 12.2653 11.7842 8.13027 18.8079 5.15221C8.73482 5.30218 2.81093 12.8652 2.51099 20.8352C2.36615 24.9225 3.74092 28.9433 6.4367 32.317C9.13249 35.6906 13.0097 38.2423 17.5082 39.6035V49.2875C17.5082 49.8557 17.7715 50.4007 18.2403 50.8025C18.709 51.2043 19.3448 51.43 20.0077 51.43H30.0058C30.6688 51.43 31.3045 51.2043 31.7733 50.8025C32.242 50.4007 32.5054 49.8557 32.5054 49.2875H25.0068C24.3439 49.2875 23.7081 49.0618 23.2393 48.66C22.7706 48.2582 22.5072 47.7133 22.5072 47.145Z" fill="#F9AE40"/>
</svg>
