<svg width="50" height="40" viewBox="0 0 50 40" fill="none" xmlns="http://www.w3.org/2000/svg">
<path d="M45.8332 39.0911H4.16652C2.32652 39.0911 0.833191 37.462 0.833191 35.4548V4.54566C0.833191 2.53839 2.32652 0.909302 4.16652 0.909302H45.8332C47.6732 0.909302 49.1665 2.53839 49.1665 4.54566V35.4548C49.1665 37.462 47.6732 39.0911 45.8332 39.0911Z" fill="white"/>
<path d="M47.7333 7.22362L24.9999 24.1909L2.26659 7.22362C2.10326 7.09998 1.96159 6.94907 1.82159 6.79635H1.79993L31.3249 39.0073H45.8716C47.6849 39.0073 49.1683 37.3891 49.1683 35.4127V4.25635C49.1666 5.48907 48.5983 6.57635 47.7333 7.22362Z" fill="#ECEFF1"/>
<path d="M49.1665 3.6366V35.5311C49.1665 37.4984 47.7049 39.0911 45.9032 39.0911H43.3332V3.6366H49.1665Z" fill="#FF8A80"/>
<path d="M0.833191 3.6366V35.5311C0.833191 37.4984 2.29486 39.0911 4.09652 39.0911H6.66652V3.6366H0.833191Z" fill="#FF8A80"/>
<path d="M45.8699 0.661621L24.9999 16.2398L4.12986 0.661621C2.31652 0.661621 0.833191 2.2798 0.833191 4.25617C0.833191 5.48708 1.40152 6.57435 2.26652 7.22162L24.9999 24.1907L47.7332 7.22162C48.5982 6.57435 49.1665 5.48708 49.1665 4.25617C49.1665 2.2798 47.6832 0.661621 45.8699 0.661621Z" fill="#FF8A80"/>
<path d="M45.8333 40H4.16667C1.87 40 0 37.96 0 35.4545V4.54545C0 4.04364 0.373333 3.63636 0.833333 3.63636C1.29333 3.63636 1.66667 4.04364 1.66667 4.54545V35.4545C1.66667 36.9582 2.78833 38.1818 4.16667 38.1818H45.8333C47.2117 38.1818 48.3333 36.9582 48.3333 35.4545V4.54545C48.3333 3.04182 47.2117 1.81818 45.8333 1.81818C45.3733 1.81818 45 1.41091 45 0.909091C45 0.407273 45.3733 0 45.8333 0C48.13 0 50 2.04 50 4.54545V35.4545C50 37.96 48.13 40 45.8333 40Z" fill="#455A64"/>
<path d="M25 25.4545C24.835 25.4545 24.67 25.4018 24.5267 25.2945L1.77667 8.17818C0.663333 7.34182 0 5.96 0 4.48545C0 2.01273 1.845 0 4.11167 0H45.8867C48.155 0 50 2.01273 50 4.48545C50 5.96 49.3367 7.34 48.2233 8.17818L25.4733 25.2945C25.33 25.4018 25.165 25.4545 25 25.4545ZM4.11167 1.81818C2.76333 1.81818 1.66667 3.01455 1.66667 4.48545C1.66667 5.36364 2.06167 6.18364 2.72333 6.68182L25 23.4418L47.2767 6.68182C47.9383 6.18364 48.3333 5.36364 48.3333 4.48545C48.3333 3.01455 47.2367 1.81818 45.8883 1.81818H4.11167Z" fill="#455A64"/>
</svg>
