<svg width="40" height="40" viewBox="0 0 40 40" fill="none" xmlns="http://www.w3.org/2000/svg">
<path d="M0 20C0 8.95522 8.99254 0 20 0C31.0448 0 40 8.95522 40 20C40 31.0448 31.0821 40 20 40C8.99254 40 0 31.0448 0 20ZM14.1045 16.5299V19.4403H16.6045V30.4851H14.1045V33.3955H25.8582V30.4851H23.3955V19.4403H25.8582V16.5299H14.1045ZM15.8209 10.8582C15.8209 13.1716 17.7239 15.0746 20.0373 15.0746C22.3507 15.0746 24.2537 13.209 24.2537 10.8582C24.2537 8.54478 22.3507 6.64179 20.0373 6.64179C17.6866 6.64179 15.8209 8.54478 15.8209 10.8582Z" fill="black"/>
</svg>
