<svg width="60" height="60" viewBox="0 0 60 60" fill="none" xmlns="http://www.w3.org/2000/svg">
<path d="M21.4285 31.2021C21.4285 27.2222 22.8571 23.3559 25.4081 20.5131C27.551 18.1251 30.3061 16.6469 33.1632 16.192V8.3458L18.8775 0.613312V51.5568L33.1632 59.2892V46.0985C30.3061 45.6437 27.551 44.2791 25.4081 41.7774C22.7551 39.0483 21.4285 35.1821 21.4285 31.2021Z" fill="black"/>
<path d="M53.0613 0.272215C52.5511 -0.0689239 51.9388 -0.0689243 51.4286 0.158502L36.6327 8.34584V16.192C39.5919 16.6469 42.449 18.1252 44.5919 20.5131C47.1429 23.356 48.5715 27.1085 48.5715 31.2022C48.5715 34.6136 47.5511 37.7975 45.7143 40.4129L54.1837 49.8511L53.8776 1.8642C53.8776 1.18192 53.5715 0.613354 53.0613 0.272215Z" fill="black"/>
<path d="M15.4082 0.727081L0.918369 9.71041C0.408165 10.0516 0 10.7338 0 11.4161V58.0385C0 58.7207 0.306124 59.403 0.816328 59.7442C1.32653 60.0853 2.04082 60.0853 2.55102 59.7442L15.3061 51.7842V0.727081H15.4082Z" fill="black"/>
<path d="M36.6326 46.0986V59.2893L51.7347 52.4665L43.2653 43.0284C41.2245 44.8478 38.9796 45.8712 36.6326 46.0986Z" fill="black"/>
<path d="M35 19.9445C32.347 19.9445 29.796 21.0817 27.8572 23.2422C25.9184 25.4028 24.898 28.2456 24.898 31.2021C24.898 34.1587 25.9184 37.0015 27.8572 39.1621C31.8368 43.5969 38.2654 43.5969 42.1429 39.1621C44.0817 37.0015 45.1021 34.1587 45.1021 31.2021C45.1021 28.2456 44.0817 25.4028 42.1429 23.2422C40.2041 21.0817 37.6531 19.9445 35 19.9445Z" fill="black"/>
<path d="M54.1837 50.0785C54.1837 50.8745 53.7756 51.5568 53.1633 51.8979L51.8368 52.4665L57.5511 58.8344L60.0001 56.1053L54.2858 49.7374L54.1837 50.0785Z" fill="black"/>
</svg>
