<svg width="40" height="40" viewBox="0 0 40 40" fill="none" xmlns="http://www.w3.org/2000/svg">
<g clip-path="url(#clip0_1_317)">
<path d="M23.3343 0C14.1296 0 6.66764 7.46195 6.66764 16.6667C6.66764 20.6671 8.13513 24.2887 10.4844 27.1613L0.000976562 37.6432L2.35775 40L12.8413 29.5178C15.7137 31.8663 19.3347 33.3333 23.3343 33.3333C32.539 33.3333 40.001 25.8714 40.001 16.6667C40.001 7.46195 32.539 0 23.3343 0ZM23.3343 30C15.9822 30 10.001 24.0188 10.001 16.6667C10.001 9.31458 15.9822 3.33333 23.3343 3.33333C30.6864 3.33333 36.6676 9.31458 36.6676 16.6667C36.6676 24.0188 30.6864 30 23.3343 30Z" fill="black"/>
</g>
<defs>
<clipPath id="clip0_1_317">
<rect width="40" height="40" fill="white" transform="translate(0.000976562)"/>
</clipPath>
</defs>
</svg>
