<svg width="60" height="60" viewBox="0 0 60 60" fill="none" xmlns="http://www.w3.org/2000/svg">
<path d="M59.5016 35.8421L56.4812 39L50.2894 32.5263L53.3098 29.3684C53.9441 28.6737 55.0013 28.6737 55.6355 29.3684L59.5016 33.4105C60.1661 34.0737 60.1661 35.1789 59.5016 35.8421ZM30.2039 53.4947L48.5376 34.3579L54.7294 40.8316L36.4259 60H30.2039V53.4947ZM6.04077 0H48.3262C49.9283 0 51.4648 0.665411 52.5977 1.84985C53.7305 3.03429 54.367 4.64074 54.367 6.31579V19.4842L42.7989 31.5789H30.2039V44.7474L24.6766 50.5263H6.04077C4.43866 50.5263 2.90217 49.8609 1.7693 48.6765C0.636437 47.492 0 45.8856 0 44.2105V6.31579C0 4.64074 0.636437 3.03429 1.7693 1.84985C2.90217 0.665411 4.43866 0 6.04077 0ZM6.04077 12.6316V25.2632H24.1631V12.6316H6.04077ZM30.2039 12.6316V25.2632H48.3262V12.6316H30.2039ZM6.04077 31.5789V44.2105H24.1631V31.5789H6.04077Z" fill="black"/>
</svg>
