<svg width="40" height="40" viewBox="0 0 40 40" fill="none" xmlns="http://www.w3.org/2000/svg">
<path d="M19.9999 39.3335C30.6774 39.3335 39.3332 30.6777 39.3332 20.0002C39.3332 9.3227 30.6774 0.66687 19.9999 0.66687C9.32239 0.66687 0.666565 9.3227 0.666565 20.0002C0.666565 30.6777 9.32239 39.3335 19.9999 39.3335Z" fill="white"/>
<path d="M39.3334 20.0002C39.3334 18.2149 39.0721 16.4922 38.6188 14.8509C35.7734 7.7162 28.8161 2.66687 20.6668 2.66687C9.98943 2.66687 1.33344 11.3229 1.33344 22.0002C1.33344 23.7855 1.59477 25.5082 2.0481 27.1495C4.89344 34.2842 11.8508 39.3335 20.0001 39.3335C30.6774 39.3335 39.3334 30.6775 39.3334 20.0002Z" fill="#80D8FF"/>
<path d="M19.6493 40C8.632 40 0 31.2147 0 20C0 15.1613 1.64933 10.5187 4.64667 6.928C4.884 6.64533 5.30267 6.60933 5.58533 6.844C5.868 7.08 5.90667 7.5 5.67067 7.78267C2.87333 11.1333 1.33333 15.472 1.33333 20C1.33333 30.468 9.37867 38.6667 19.6493 38.6667C30.136 38.6667 38.6667 30.2933 38.6667 20C38.6667 9.70667 30.136 1.33333 19.6493 1.33333C16.396 1.33333 13.232 2.16 10.5053 3.72267C10.1893 3.9 9.77867 3.79467 9.596 3.47467C9.41333 3.15467 9.524 2.748 9.844 2.564C12.772 0.886667 16.1627 0 19.6493 0C30.8707 0 40 8.972 40 20C40 31.028 30.8707 40 19.6493 40Z" fill="#455A64"/>
<path d="M8.72396 4.736C8.72396 5.10267 8.42396 5.40267 8.05729 5.40267C7.69063 5.40267 7.39062 5.10267 7.39062 4.736C7.39062 4.36934 7.69063 4.06934 8.05729 4.06934C8.42396 4.06934 8.72396 4.368 8.72396 4.736Z" fill="#455A64"/>
<path d="M16.3332 29.1665C15.6852 29.1665 15.7959 28.9211 15.5719 28.3051L13.6666 22.0345L28.3332 13.3331L16.3332 29.1665Z" fill="#ECEFF1"/>
<path d="M16.3334 29.1669C16.8334 29.1669 17.0548 28.9389 17.3334 28.6669L20.0001 26.0736L16.6734 24.0682L16.3334 29.1669Z" fill="#CFD8DC"/>
<path d="M16.6733 24.0683L24.7333 30.0229C25.6533 30.5296 26.3173 30.2669 26.5453 29.1683L29.8266 13.7083C30.1626 12.3616 29.3133 11.7509 28.4333 12.1496L9.16798 19.5803C7.85331 20.1083 7.86265 20.8416 8.92798 21.1683L13.872 22.7109L25.3173 15.4896C25.8573 15.1616 26.3533 15.3376 25.948 15.6989L16.6733 24.0683Z" fill="white"/>
<path d="M24.7332 30.6906C24.5852 30.6906 24.4345 30.6413 24.3119 30.54L16.6279 24.2453C16.4772 24.1226 16.3879 23.94 16.3825 23.7453C16.3785 23.5506 16.4585 23.3653 16.6025 23.2346L22.3052 18.088C22.5785 17.8386 22.9999 17.8626 23.2465 18.136C23.4945 18.4093 23.4719 18.8306 23.1985 19.0773L18.0705 23.704L25.1545 29.508C25.4399 29.7413 25.4812 30.1613 25.2479 30.4466C25.1172 30.6066 24.9252 30.6906 24.7332 30.6906Z" fill="#455A64"/>
<path d="M25.5427 30.939C25.1894 30.939 24.8094 30.8283 24.4107 30.6083L20.0294 27.087L17.784 29.1576C17.472 29.463 17.0907 29.8336 16.332 29.8336C15.3987 29.8336 15.1814 29.3416 15.0387 28.8363C15.0134 28.7496 14.9854 28.6483 14.944 28.5323L13.336 23.2403L8.72804 21.803C7.64271 21.4696 7.49738 20.8043 7.48538 20.535C7.46671 20.087 7.70004 19.4483 8.91738 18.9603L28.7147 11.3216C29.2814 11.1003 29.9467 11.279 30.3307 11.7523C30.6014 12.0843 30.7054 12.5163 30.6174 12.9376L27.1974 29.3043C26.8907 30.779 25.9374 30.939 25.5427 30.939ZM20 25.5403C20.148 25.5403 20.296 25.5896 20.4174 25.6883L25.1507 29.5043C25.7627 29.7963 25.8174 29.391 25.8934 29.0323L29.3134 12.667L29.2294 12.559L9.40804 20.2016C9.17471 20.295 9.02138 20.387 8.92804 20.455C8.97738 20.479 9.04271 20.5043 9.12404 20.5296L14.072 22.0736C14.2814 22.1403 14.4467 22.3056 14.5107 22.5163L16.2094 28.111C16.2534 28.2283 16.2907 28.3616 16.3227 28.4736C16.3254 28.4816 16.328 28.491 16.3294 28.499C16.5067 28.4976 16.6 28.4496 16.8467 28.2083L19.548 25.715C19.676 25.6003 19.8374 25.5403 20 25.5403Z" fill="#455A64"/>
<path d="M25.3905 16.736C25.3905 17.1027 25.0905 17.4027 24.7239 17.4027C24.3572 17.4027 24.0572 17.1027 24.0572 16.736C24.0572 16.3693 24.3572 16.0693 24.7239 16.0693C25.0905 16.0693 25.3905 16.368 25.3905 16.736Z" fill="#455A64"/>
</svg>
