<svg width="40" height="40" viewBox="0 0 40 40" fill="none" xmlns="http://www.w3.org/2000/svg">
<path d="M20.0053 0.66687H19.9946C9.33593 0.66687 0.666595 9.33887 0.666595 20.0002C0.666595 24.2282 2.02926 28.1495 4.34793 31.3322L1.9386 38.5162L9.36926 36.1402C12.4266 38.1642 16.0733 39.3349 20.0053 39.3349C30.6639 39.3335 39.3333 30.6615 39.3333 20.0002C39.3333 9.33887 30.6639 0.66687 20.0053 0.66687Z" fill="white"/>
<path d="M9.36926 36.1389C12.4266 38.1629 16.0733 39.3335 20.0053 39.3335C30.6639 39.3335 39.3333 30.6615 39.3333 20.0002C39.3333 18.2215 39.0719 16.5055 38.6199 14.8682C35.7759 7.73087 28.8106 2.66687 20.6719 2.66687H20.6613C10.0026 2.66687 1.33326 11.3389 1.33326 22.0002C1.33326 22.5455 1.21726 23.0989 1.02792 23.6549C1.57059 26.4775 2.71726 29.0909 4.34792 31.3309L1.93859 38.5149L9.36926 36.1389Z" fill="#65F0CD"/>
<path d="M20.0053 40C16.1813 40 12.4773 38.9187 9.272 36.8707L2.14133 39.1493C1.90267 39.2253 1.64 39.1613 1.46267 38.9827C1.28667 38.804 1.22533 38.54 1.30667 38.3027L3.60667 31.4413C1.24667 28.0813 0 24.1333 0 20C0 14.5653 2.14933 9.47867 6.052 5.67733C6.31467 5.42133 6.73733 5.42667 6.99467 5.68933C7.25067 5.95333 7.24533 6.376 6.98133 6.632C3.34 10.1813 1.33333 14.928 1.33333 20C1.33333 23.9653 2.56267 27.748 4.88667 30.9387C5.01333 31.1133 5.048 31.3387 4.97867 31.544L2.98933 37.48L9.16667 35.5053C9.35867 35.4427 9.56933 35.4733 9.73867 35.584C12.7853 37.6 16.336 38.6667 20.0053 38.6667C30.296 38.6667 38.6667 30.2933 38.6667 20C38.6667 9.708 30.296 1.33333 20.0053 1.33333H20.0013C17.112 1.33333 14.3507 1.97467 11.7827 3.23867C11.452 3.4 11.0533 3.26533 10.8907 2.936C10.728 2.60667 10.8627 2.20533 11.1947 2.04267C13.9467 0.688 16.9093 0 19.9947 0C31.0293 0 40 8.972 40 20C40 31.028 31.0293 40 20.0053 40Z" fill="#455A64"/>
<path d="M30.2893 24.459C29.7213 24.175 26.96 22.811 26.4373 22.6283C25.9253 22.435 25.4373 22.5043 25.052 23.0497C24.5053 23.811 23.972 24.5843 23.54 25.0497C23.1986 25.4137 22.6413 25.459 22.1773 25.2657C21.552 25.0043 19.8026 24.3897 17.644 22.4697C15.9733 20.9817 14.8373 19.1283 14.5066 18.5723C14.1773 18.0043 14.4733 17.6737 14.7346 17.367C15.0186 17.015 15.2906 16.7643 15.5746 16.435C15.86 16.1043 16.0186 15.935 16.2013 15.5483C16.3946 15.1737 16.2573 14.787 16.12 14.5017C15.984 14.2177 14.848 11.4443 14.3813 10.319C14.0066 9.42168 13.7226 9.38701 13.1546 9.36434C12.96 9.35368 12.7453 9.34167 12.5066 9.34167C11.768 9.34167 10.996 9.55768 10.5306 10.035C9.96131 10.615 8.55331 11.967 8.55331 14.7403C8.55331 17.5137 10.576 20.1963 10.8493 20.5723C11.1333 20.947 14.792 26.7203 20.4733 29.0737C24.916 30.915 26.2346 30.7443 27.2453 30.5283C28.7226 30.2097 30.5746 29.1177 31.0413 27.8003C31.508 26.4817 31.508 25.3563 31.3706 25.1177C31.232 24.8803 30.8573 24.7443 30.2893 24.459Z" fill="white"/>
<path d="M26.1361 31.3239C24.7881 31.3239 22.9067 30.8039 20.2174 29.6892C16.7067 28.2359 13.2267 25.1906 10.4174 21.1172L10.3174 20.9746C9.38939 19.7066 7.88672 17.2772 7.88672 14.7412C7.88672 11.7692 9.37339 10.2612 10.0094 9.61724C10.6081 9.00257 11.5027 8.6759 12.5081 8.6759C12.7614 8.6759 12.9881 8.6879 13.1947 8.6999C14.0414 8.73324 14.5321 8.94657 14.9987 10.0626L15.4827 11.2359C15.9947 12.4772 16.6254 14.0092 16.7241 14.2159C16.8334 14.4412 17.1654 15.1332 16.7961 15.8532C16.5987 16.2746 16.4054 16.4972 16.1401 16.8039C15.9534 17.0186 15.8294 17.1519 15.7027 17.2852C15.5561 17.4426 15.4067 17.5972 15.2574 17.7852C15.0001 18.0866 15.0001 18.0866 15.0867 18.2372C15.5801 19.0706 16.6294 20.6706 18.0907 21.9706C19.9867 23.6572 21.5187 24.2772 22.2547 24.5759L22.4374 24.6506C22.6307 24.7306 22.8747 24.7879 23.0574 24.5946C23.3881 24.2386 23.8067 23.6532 24.2494 23.0332L24.5147 22.6612C24.9801 22.0039 25.5534 21.8652 25.9521 21.8652C26.1854 21.8652 26.4281 21.9119 26.6761 22.0052C27.2961 22.2212 30.5587 23.8466 30.5921 23.8626L30.9054 24.0159C31.3721 24.2399 31.7401 24.4172 31.9507 24.7879C32.2561 25.3186 32.1361 26.7106 31.6721 28.0239C31.1161 29.5959 29.0494 30.8239 27.3881 31.1812C27.0574 31.2506 26.6641 31.3239 26.1361 31.3239ZM12.5067 10.0092C11.8774 10.0092 11.3041 10.1986 11.0081 10.5012C10.3934 11.1252 9.21872 12.3159 9.21872 14.7412C9.21872 16.3159 9.99872 18.2852 11.3587 20.1426L11.5134 20.3626C14.1774 24.2266 17.4494 27.1026 20.7254 28.4586C23.2494 29.5052 24.9681 29.9919 26.1347 29.9919C26.5347 29.9919 26.8321 29.9359 27.1041 29.8786C28.4014 29.5986 30.0347 28.6399 30.4094 27.5799C30.8147 26.4372 30.8067 25.5586 30.7587 25.3839C30.7561 25.4252 30.5161 25.3119 30.3227 25.2186L29.9907 25.0559C29.0561 24.5879 26.6401 23.4079 26.2174 23.2599C26.1054 23.2172 26.0201 23.1999 25.9481 23.1999C25.8881 23.1999 25.7641 23.1999 25.5961 23.4372L25.3294 23.8106C24.8614 24.4666 24.4201 25.0852 24.0281 25.5066C23.5254 26.0439 22.6627 26.1932 21.9201 25.8839L21.7507 25.8146C21.0081 25.5146 19.2681 24.8106 17.2001 22.9706C15.6054 21.5492 14.4681 19.8199 13.9321 18.9146C13.3681 17.9426 13.9401 17.2732 14.2147 16.9519C14.3894 16.7346 14.5601 16.5546 14.7307 16.3732C14.8427 16.2546 14.9547 16.1359 15.0694 16.0026C15.3694 15.6572 15.4681 15.5426 15.5974 15.2666C15.6361 15.1906 15.6574 15.0826 15.5187 14.7946C15.4174 14.5812 14.7694 13.0159 14.2481 11.7466L13.7654 10.5772C13.5454 10.0492 13.5454 10.0492 13.1267 10.0332C12.9347 10.0199 12.7321 10.0092 12.5067 10.0092Z" fill="#455A64"/>
<path d="M8.66664 4.66646C9.03483 4.66646 9.3333 4.36799 9.3333 3.9998C9.3333 3.63161 9.03483 3.33313 8.66664 3.33313C8.29845 3.33313 7.99997 3.63161 7.99997 3.9998C7.99997 4.36799 8.29845 4.66646 8.66664 4.66646Z" fill="#455A64"/>
</svg>
